<?xml version="1.0" encoding="utf-8"?>
<!-- Generator: Adobe Illustrator 26.0.0, SVG Export Plug-In . SVG Version: 6.00 Build 0)  -->
<svg version="1.1" id="Layer_1" xmlns="http://www.w3.org/2000/svg" xmlns:xlink="http://www.w3.org/1999/xlink" x="0px" y="0px"
	 viewBox="0 0 118 95" style="enable-background:new 0 0 118 95;" xml:space="preserve">
<style type="text/css">
	.st0{clip-path:url(#SVGID_00000154391904395433165270000007424253333551882118_);}
	.st1{fill:#104EA5;}
	.st2{fill:#FFFFFF;filter:url(#Adobe_OpacityMaskFilter);}
	.st3{mask:url(#path-23-outside-1_1214_5698_00000181804268598987727950000001234211640627882164_);fill:#104EA5;}
	.st4{fill:#104EA5;stroke:#848998;stroke-width:0.2;}
	.st5{fill:#FFFFFF;filter:url(#Adobe_OpacityMaskFilter_00000178165974517109948620000017249552025302872507_);}
	.st6{mask:url(#path-28-outside-2_1214_5698_00000067237348633486758650000009802454111144633507_);fill:#104EA5;}
	.st7{fill:#CC0000;}
</style>
<g>
	<defs>
		<rect id="SVGID_1_" y="-8.5" width="125" height="100"/>
	</defs>
	<clipPath id="SVGID_00000088837560295025302570000011838591022638769825_">
		<use xlink:href="#SVGID_1_"  style="overflow:visible;"/>
	</clipPath>
	<g style="clip-path:url(#SVGID_00000088837560295025302570000011838591022638769825_);">
		<path class="st1" d="M47.7,35.9c-0.1-0.1-0.1-0.2-0.1-0.2c1.6-3.1,8.5-9.7,11.6-10.7c0.1,0,0.2,0,0.2,0.1c0,0.1,0,0.2-0.1,0.2
			c-3.1,1-9.8,7.5-11.4,10.6C47.9,35.9,47.8,35.9,47.7,35.9z"/>
		<path class="st1" d="M63.8,35.6c0,0-0.1-0.1-0.1-0.1c0-0.1,0-0.2,0.1-0.2c2.3-0.5,3.9-3.5,3.9-3.5c0-0.1,0.1-0.1,0.2,0
			C68,31.8,68,31.9,68,32c-0.1,0.1-1.7,3.1-4.1,3.6C63.9,35.6,63.8,35.6,63.8,35.6z"/>
		<path class="st1" d="M71.1,38c-0.1,0-0.1-0.1-0.1-0.2c0.1-0.7,1.2-2.1,2.8-2.4c0.1,0,0.2,0,0.2,0.1c0,0.1,0,0.2-0.1,0.2
			c-1.5,0.3-2.5,1.7-2.6,2.2C71.3,38,71.3,38.1,71.1,38C71.2,38,71.1,38,71.1,38z"/>
		<path class="st1" d="M72.3,40.2c0,0-0.1-0.1-0.1-0.1c0-0.1,0.1-0.2,0.1-0.2c1.4,0.1,3.3-2.4,3.7-3.3c0-0.1,0.1-0.1,0.2-0.1
			c0.1,0,0.1,0.1,0.1,0.2C76,37.6,74,40.3,72.3,40.2C72.3,40.2,72.3,40.2,72.3,40.2z"/>
		<path class="st1" d="M63.2,33.8c-0.1,0-0.1-0.1-0.1-0.2c0.1-0.9,1.7-2.1,3-2.8c0.1,0,0.2,0,0.2,0.1c0,0.1,0,0.2,0,0.2
			c-1.4,0.7-2.7,1.9-2.8,2.6C63.4,33.8,63.3,33.9,63.2,33.8C63.2,33.8,63.2,33.8,63.2,33.8z"/>
		<path class="st1" d="M85.7,13.7c0,0-0.1-0.1-0.1-0.1c-0.6-1.7-2.8-3.1-3.2-3.2c-0.1,0-0.2-0.1-0.1-0.2c0-0.1,0.1-0.1,0.2-0.1
			c0.5,0.1,2.8,1.7,3.5,3.5c0,0.1,0,0.2-0.1,0.2C85.8,13.7,85.8,13.7,85.7,13.7z"/>
		<path class="st1" d="M87.4,13.9c0,0-0.1-0.1-0.1-0.1c-0.3-1.5-3.1-3.8-3.7-4c-0.1,0-0.1-0.1-0.1-0.2c0-0.1,0.1-0.1,0.2-0.1
			c0.8,0.3,3.6,2.7,3.9,4.3c0,0.1,0,0.2-0.1,0.2C87.5,14,87.5,14,87.4,13.9z"/>
		<path class="st1" d="M85,14.6c-1.5-1-3.4-2.7-3.4-3.5c0-0.1,0.1-0.2,0.1-0.2c0.1,0,0.2,0.1,0.2,0.2c0.1,0.8,2.6,3.1,4.2,3.8
			c0.1,0,0.1,0.1,0.1,0.2c0,0.1-0.1,0.1-0.2,0.1C85.7,15,85.4,14.8,85,14.6z"/>
		<path class="st1" d="M78,13.2C78,13.2,77.9,13.2,78,13.2c-0.6-1.1-1.7-2.2-2.4-2.4c-0.1,0-0.2-0.1-0.1-0.2c0-0.1,0.1-0.1,0.2-0.1
			c0.8,0.2,2,1.5,2.5,2.5c0,0.1,0,0.2-0.1,0.2C78.1,13.3,78,13.2,78,13.2z"/>
		<path class="st1" d="M79.1,13.3c-0.1,0-0.1-0.1-0.1-0.1c-0.1-1.1-1.3-2.3-2.3-2.5c-0.1,0-0.2-0.1-0.2-0.2c0-0.1,0.1-0.1,0.2-0.1
			c1.1,0.2,2.5,1.6,2.6,2.8C79.3,13.3,79.3,13.3,79.1,13.3C79.1,13.3,79.1,13.3,79.1,13.3z"/>
		<path class="st1" d="M76.7,13.9c-0.6-0.4-1.1-0.8-1.4-1.3c-0.4-0.5-0.6-1-0.5-1.4c0-0.1,0.1-0.1,0.2-0.1c0.1,0,0.2,0.1,0.1,0.2
			c0,0.3,0.1,0.7,0.4,1.1c0.5,0.7,1.5,1.5,2.4,1.7c0.1,0,0.2,0.1,0.2,0.2c0,0.1-0.1,0.2-0.2,0.1C77.5,14.3,77.1,14.1,76.7,13.9z"/>
		<path class="st1" d="M63.9,65.8c-0.1,0-0.1-0.1-0.1-0.2c0-0.1,0.1-0.2,0.2-0.1c0.9,0.1,5.5-0.4,7.5-2.5c0.1-0.1,0.2-0.1,0.2,0
			c0.1,0.1,0.1,0.2,0,0.2C69.7,65.4,65,65.9,63.9,65.8C64,65.8,64,65.8,63.9,65.8z"/>
		<path class="st1" d="M82.7,57C82.7,57,82.7,57,82.7,57c-0.1-0.1-1.3-1.1-1.7-2.4c0-0.1,0-0.2,0.1-0.2c0.1,0,0.2,0.1,0.2,0.1
			c0.3,1.2,1.5,2.1,1.5,2.1c0.1,0.1,0.1,0.2,0,0.2C82.9,57,82.8,57,82.7,57z"/>
		<path class="st1" d="M83.6,56.3C83.6,56.3,83.6,56.3,83.6,56.3c-0.7-0.6-1.4-1.9-1.2-3.4c0-0.1,0.1-0.1,0.2-0.1
			c0.1,0,0.2,0.1,0.1,0.2c-0.2,1.3,0.4,2.5,1,3c0.1,0.1,0.1,0.2,0.1,0.2C83.8,56.4,83.7,56.4,83.6,56.3z"/>
		<path class="st1" d="M97.7,14.1C97.7,14.1,97.6,14,97.7,14.1c-0.1-0.1-1.9-3.4-3.5-4.1C94.1,10,94,9.9,94,9.8
			c0-0.1,0.1-0.1,0.2-0.1c1.8,0.7,3.6,4,3.7,4.2c0,0.1,0,0.2-0.1,0.2C97.8,14.1,97.7,14.1,97.7,14.1z"/>
		<path class="st1" d="M88.6,20.5C88.6,20.4,88.6,20.4,88.6,20.5c-0.4-0.6-1-1.2-1.6-1.9c-0.4-0.5-0.9-1-1.3-1.5
			c-0.1-0.1-0.1-0.2,0-0.2c0.1,0,0.2,0,0.2,0c0.4,0.5,0.8,1,1.3,1.5c0.6,0.7,1.2,1.3,1.6,1.8c0.1,0.1,0,0.2,0,0.2
			C88.7,20.5,88.7,20.5,88.6,20.5z"/>
		<path class="st1" d="M89.9,20.5c0,0-0.1-0.1-0.1-0.1c-0.7-2-2.2-3.1-3.2-3.8l-0.2-0.2c-0.1-0.1-0.1-0.2-0.1-0.2
			c0-0.1,0.1-0.1,0.2,0l0.2,0.2c1.1,0.8,2.6,1.9,3.4,4c0,0.1,0,0.2-0.1,0.2C90,20.5,90,20.5,89.9,20.5z"/>
		<path class="st1" d="M88,22c-2.6-1.6-3-4.2-3-4.2c0-0.1,0.1-0.2,0.1-0.2c0.1,0,0.2,0.1,0.2,0.2c0,0.1,0.4,2.9,3.6,4.4
			c0.1,0,0.1,0.1,0.1,0.2c0,0.1-0.1,0.1-0.2,0.1C88.5,22.3,88.2,22.1,88,22z"/>
		<path class="st1" d="M95.5,13C95.5,13,95.5,13,95.5,13c0,0-1.9-1.8-2.1-2.4c0-0.1,0-0.2,0.1-0.2c0.1,0,0.2,0,0.2,0.1
			c0.1,0.4,1.4,1.7,2,2.2c0.1,0.1,0.1,0.2,0,0.2C95.7,13,95.6,13,95.5,13z"/>
		<path class="st1" d="M112.3,9.9c-0.1-0.7-1.7-1.4-3.4-1.5c-1.7,0-1.4-0.2-2.8,1.3c-2.2,2.3,1.7,2,3.3,1.8
			C111.5,11.3,112.4,10.6,112.3,9.9z"/>
		<path class="st1" d="M100.2,21.5c0.1-0.4-1.2-1.2-2.7-1.8c-1.7-0.6-1.5-0.8-2.8,0.2c-1.7,1.2,1.1,1.6,2.6,1.9
			C99.2,22.1,100.2,21.9,100.2,21.5z"/>
		<path class="st1" d="M104.3,11.8c0.3-0.2,0.6-0.5,0.9-0.7c0,0.1,0.1,0.1,0.1,0.2c0.1,0.1,0.1,0.1,0.2,0.2c0.6,0.4,1.6,0.5,3,0.4
			c0.1,0,0.2,0,0.4,0c0.8,0,1.9-0.1,2.8-0.6c-0.4,1.1-1.8,2.9-6.6,3.7c-2.9,0.5-4.8,0.8-5.8,1C100.9,14.4,102.7,12.9,104.3,11.8z
			 M109.8,8.7l0.2,0c1,0.2,1.7,0.4,1.9,1.2c0.1,0.2,0.1,0.3,0,0.4c0,0,0,0.1-0.1,0.1c-0.6,0.9-2.2,0.9-3.1,1c-0.1,0-0.3,0-0.4,0
			c-1.9,0.1-2.6-0.2-2.9-0.4c-0.1-0.1-0.1-0.1-0.1-0.2c0.9-0.8,1.6-1.5,2.2-2.3C108.5,8.5,109.3,8.5,109.8,8.7z M100,21.3
			c0.1,0.1,0.1,0.1,0,0.2c0,0,0,0.1,0,0.1c-2,0.6-5-0.6-5.7-1c0.4-0.4,0.8-0.8,1.3-1.3C97,19.6,99.6,20.6,100,21.3z M99.9,22.1
			c-0.4,1.1-1.3,2.9-3.7,2.5c-2.4-0.4-3.9-0.9-4.4-1.1c0,0,0.1-0.1,0.1-0.1c0.5-0.7,1.3-1.5,2.2-2.5C94.3,21,97.6,22.6,99.9,22.1z
			 M89.7,27.6c0.2,0.5,0.1,1-0.2,1.5c-0.7,1.3-1.8,1.2-2.7,1.1c-0.1,0-0.1,0-0.2,0c0.9-1.2,1.8-2.3,2.6-3.4
			C89.4,27,89.6,27.3,89.7,27.6z M11.4,67.5C5.1,69.7-18.9,76-28.8,78.2c-0.7,0.2-1.4,0.3-2.2,0.5l0.4,0.4c0.7-0.2,1.4-0.3,2-0.5
			c9.9-2.1,33.9-8.4,40.2-10.6c1.4-0.5,2.7-0.9,3.8-1.3c4-1.3,5.9-2,6.7-3.3l0.1-0.1c1.9-3.1,2.6-4.3,5.8-4.4
			c3.3-0.1,8.2-7.3,10-11.3c1.9-4.2,10-15.8,12.8-18.6c2-2,2.8-3.1,3.8-4.4c0.4-0.5,0.8-1,1.3-1.7c0.9-1.1,2.2-1.3,3.5-1.5
			c1-0.1,2-0.3,2.9-0.8c1.5-1,3-1.9,4.3-2.4c-0.4,0.4-0.9,0.8-1.3,1.3c-1.4,1.4-2.9,2.8-4.4,3.5c-0.1,0-0.1,0.2-0.1,0.3
			c0,0,0.1,0.1,0.1,0.1c0.1,0,0.1,0.1,0.2,0c1.6-0.7,3.1-2.1,4.6-3.6c0.7-0.7,1.4-1.4,2.1-2c1.1-0.9,2.8-2.4,4.3-3.8
			c1.2-1,2.3-2,2.8-2.5c1.2-1,2.7-0.9,3.3-0.7c0.9,0.4,2,0.7,2.6,0.9c-0.7,1-1.6,1.9-2.8,3.1c-0.9,0.9-1.8,2-2.9,3.2
			c-2.4,2.8-4.3,4.9-6.7,6.2c-0.1,0.1-0.1,0.2-0.1,0.3c0,0,0.1,0.1,0.1,0.1c0.1,0,0.2,0.1,0.2,0c2.4-1.3,4.4-3.4,6.8-6.3
			c1.1-1.2,2.1-2.3,2.9-3.2c1.2-1.3,2.2-2.4,3-3.4c0,0,0,0,0,0l0,0c1.2-1.8,1.5-2.2,4.1-2.3c2.4-0.1,8.1-0.8,11.1-1.2
			c-2.8,2-5.8,4.2-7.5,5.5c-1.2,1-3,2.8-5,4.9c-0.9,1-2.2,2.5-3.3,3.9c-0.9,1.1-1.7,2.2-2.3,2.8c-1.5,1.7-2.1,2.2-3.3,2.7
			c-0.1,0-0.1,0.2-0.1,0.3c0.1,0.1,0.2,0.2,0.3,0.1c1.2-0.6,1.8-1.1,3.4-2.8c0.6-0.6,1.4-1.7,2.3-2.8c1.1-1.4,2.4-2.9,3.3-3.9
			c1.9-2.1,3.8-3.9,5-4.8c1.8-1.5,5.2-3.9,8.2-6.1c0.1-0.1,0.2-0.2,0.3-0.2c2.4-1.7,4.5-3.2,5.3-3.9c2.1-1.7,4.1-1.2,4.6-1
			c0.6,0.2,1.1,0.6,1.3,1c0.3,0.6,0,2.2-1.5,4.2c0,0,0,0,0,0c-0.8,1-1.8,2.1-3.4,3.2c-1.7,1.3-3.8,3-5.7,4.7c0,0,0,0,0,0
			c-1,0.9-2,1.8-2.9,2.7c0,0,0,0,0,0c-1.6,1.6-3,3.1-3.9,4.2c-0.4,0.5-0.9,1.1-1.4,1.8c-2.5,3.2-6.4,8.2-8.2,11.7
			c-1.5,3-4.3,8.5-5.5,12c-0.1,0.4-0.3,0.8-0.5,1.3c0,0,0,0,0,0c-1.3,2.8-3.5,5.9-5.3,7.8c-0.1,0.1-0.1,0.2,0,0.3c0,0,0,0,0,0
			c0.1,0.1,0.2,0.1,0.3,0c1.8-1.9,4-5,5.3-7.8c1.4-1.2,4.5-2.8,7.8-3.6c2.9-0.8,5.6-0.6,9,0.5c2.5,0.8,4.2,2.4,4.8,3.5
			c0.3,0.4,0.3,0.7,0.3,0.9c-0.3,1.3-2.8,1.9-7.4,1.9c-2.1,0-6.3,1.2-8.9,4.5c-0.3,0.4-0.7,0.9-1.2,1.5c-2,2.6-5.3,6.9-7.6,8.4
			c-1,0.6-1.9,1.4-2.8,2c-2.4,1.8-4.8,3.7-8.2,4.4c-1.1,0.2-2.5,0.4-4.1,0.7c-2.4,0.3-4.8,0.7-6.3,1.2c-8,2.5-18.4,9.9-24.6,14.4
			c-1.5,1.1-2.9,2-3.8,2.6c-4.5,3-15.9,9.3-26.4,15.1l0.3,0.4c10.5-5.8,21.8-12.1,26.4-15.1c0.9-0.6,2.2-1.5,3.8-2.6
			c6.2-4.4,16.6-11.8,24.5-14.3c1.5-0.5,3.9-0.8,6.2-1.2c1.6-0.2,3.1-0.4,4.1-0.7c3.5-0.8,6-2.7,8.4-4.5c0.9-0.7,1.8-1.4,2.8-2
			c2.3-1.5,5.6-5.9,7.6-8.5c0.5-0.6,0.9-1.1,1.2-1.5c2.6-3.2,6.6-4.3,8.6-4.3c4.9,0,7.4-0.7,7.7-2.2c0.1-0.3-0.1-0.7-0.4-1.2
			c-0.7-1.2-2.5-2.9-5.1-3.7c-3.5-1.1-6.3-1.3-9.3-0.5c-2.9,0.7-5.6,2.1-7.2,3.2c0.1-0.2,0.1-0.3,0.2-0.5c1.2-3.5,4-9,5.5-12
			c0.9-1.8,2.4-4,4-6.2c0,0,0,0,0,0c0.1,0,0.3,0,0.5,0c0.9,0.1,2.2,0.2,3-1.3c0.4-0.7,0.4-1.3,0.2-1.9c-0.2-0.5-0.5-0.8-0.7-1
			c0.4-0.5,0.7-0.9,1.1-1.3c0.4-0.5,0.8-1,1.1-1.4c0.2,0.1,1.9,0.7,4.7,1.2c3.2,0.5,4.1-2.4,4.3-3.3c0-0.1,0-0.3-0.1-0.5
			c-0.6-0.9-3.1-1.8-4.4-2.2c0.8-0.8,1.7-1.6,2.6-2.4c0.3-0.1,2.4-0.5,6.6-1.2c4.1-0.7,6.7-2.3,7.1-4.5c0-0.1,0.1-0.2,0.1-0.2
			c0-0.1,0.1-0.1,0.1-0.2c0,0,0-0.1,0-0.1c0-0.1,0-0.3-0.1-0.5c-0.4-1.2-1.4-1.4-2.3-1.6l-0.2,0c-0.5-0.1-1.2-0.2-1.9-0.2
			c1.3-1.9,1.6-3.5,1.3-4.3c-0.2-0.5-0.8-1-1.6-1.3c-1.6-0.6-3.5-0.1-5,1.1c-0.8,0.7-2.9,2.1-5.3,3.8c-0.1,0.1-0.2,0.1-0.3,0.2
			c-2.5,0.4-9.3,1.2-12,1.4c-2.7,0.2-3.1,0.7-4.3,2.4c-0.4-0.1-1.7-0.6-2.7-1c-0.7-0.3-2.3-0.4-3.7,0.7c-0.6,0.5-1.6,1.4-2.8,2.5
			c-1.5,1.3-3.2,2.9-4.3,3.7c-1.7,0.4-3.5,1.5-5.4,2.8c-0.8,0.5-1.7,0.6-2.7,0.8c-1.4,0.2-2.8,0.4-3.8,1.6c-0.5,0.7-0.9,1.2-1.3,1.7
			c-1,1.3-1.7,2.3-3.7,4.3c-2.8,2.8-11,14.5-12.9,18.7c-2,4.5-6.7,11-9.6,11.1c-3.5,0.1-4.2,1.4-6.1,4.6l-0.1,0.1
			c-0.7,1.2-2.7,1.8-6.5,3.1C14,66.6,12.8,67,11.4,67.5z"/>
		<defs>
			<filter id="Adobe_OpacityMaskFilter" filterUnits="userSpaceOnUse" x="-31.4" y="2.1" width="144.1" height="106.5">
				<feColorMatrix  type="matrix" values="1 0 0 0 0  0 1 0 0 0  0 0 1 0 0  0 0 0 1 0"/>
			</filter>
		</defs>
		
			<mask maskUnits="userSpaceOnUse" x="-31.4" y="2.1" width="144.1" height="106.5" id="path-23-outside-1_1214_5698_00000181804268598987727950000001234211640627882164_">
			<rect x="-32.4" y="-28.3" class="st2" width="161.9" height="159.1"/>
			<path d="M104.3,11.8c0.3-0.2,0.6-0.5,0.9-0.7c0,0.1,0.1,0.1,0.1,0.2c0.1,0.1,0.1,0.1,0.2,0.2c0.6,0.4,1.6,0.5,3,0.4
				c0.1,0,0.2,0,0.4,0c0.8,0,1.9-0.1,2.8-0.6c-0.4,1.1-1.8,2.9-6.6,3.7c-2.9,0.5-4.8,0.8-5.8,1C100.9,14.4,102.7,12.9,104.3,11.8z
				 M109.8,8.7l0.2,0c1,0.2,1.7,0.4,1.9,1.2c0.1,0.2,0.1,0.3,0,0.4c0,0,0,0.1-0.1,0.1c-0.6,0.9-2.2,0.9-3.1,1c-0.1,0-0.3,0-0.4,0
				c-1.9,0.1-2.6-0.2-2.9-0.4c-0.1-0.1-0.1-0.1-0.1-0.2c0.9-0.8,1.6-1.5,2.2-2.3C108.5,8.5,109.3,8.5,109.8,8.7z M100,21.3
				c0.1,0.1,0.1,0.1,0,0.2c0,0,0,0.1,0,0.1c-2,0.6-5-0.6-5.7-1c0.4-0.4,0.8-0.8,1.3-1.3C97,19.6,99.6,20.6,100,21.3z M99.9,22.1
				c-0.4,1.1-1.3,2.9-3.7,2.5c-2.4-0.4-3.9-0.9-4.4-1.1c0,0,0.1-0.1,0.1-0.1c0.5-0.7,1.3-1.5,2.2-2.5C94.3,21,97.6,22.6,99.9,22.1z
				 M89.7,27.6c0.2,0.5,0.1,1-0.2,1.5c-0.7,1.3-1.8,1.2-2.7,1.1c-0.1,0-0.1,0-0.2,0c0.9-1.2,1.8-2.3,2.6-3.4
				C89.4,27,89.6,27.3,89.7,27.6z M11.4,67.5C5.1,69.7-18.9,76-28.8,78.2c-0.7,0.2-1.4,0.3-2.2,0.5l0.4,0.4c0.7-0.2,1.4-0.3,2-0.5
				c9.9-2.1,33.9-8.4,40.2-10.6c1.4-0.5,2.7-0.9,3.8-1.3c4-1.3,5.9-2,6.7-3.3l0.1-0.1c1.9-3.1,2.6-4.3,5.8-4.4
				c3.3-0.1,8.2-7.3,10-11.3c1.9-4.2,10-15.8,12.8-18.6c2-2,2.8-3.1,3.8-4.4c0.4-0.5,0.8-1,1.3-1.7c0.9-1.1,2.2-1.3,3.5-1.5
				c1-0.1,2-0.3,2.9-0.8c1.5-1,3-1.9,4.3-2.4c-0.4,0.4-0.9,0.8-1.3,1.3c-1.4,1.4-2.9,2.8-4.4,3.5c-0.1,0-0.1,0.2-0.1,0.3
				c0,0,0.1,0.1,0.1,0.1c0.1,0,0.1,0.1,0.2,0c1.6-0.7,3.1-2.1,4.6-3.6c0.7-0.7,1.4-1.4,2.1-2c1.1-0.9,2.8-2.4,4.3-3.8
				c1.2-1,2.3-2,2.8-2.5c1.2-1,2.7-0.9,3.3-0.7c0.9,0.4,2,0.7,2.6,0.9c-0.7,1-1.6,1.9-2.8,3.1c-0.9,0.9-1.8,2-2.9,3.2
				c-2.4,2.8-4.3,4.9-6.7,6.2c-0.1,0.1-0.1,0.2-0.1,0.3c0,0,0.1,0.1,0.1,0.1c0.1,0,0.2,0.1,0.2,0c2.4-1.3,4.4-3.4,6.8-6.3
				c1.1-1.2,2.1-2.3,2.9-3.2c1.2-1.3,2.2-2.4,3-3.4c0,0,0,0,0,0l0,0c1.2-1.8,1.5-2.2,4.1-2.3c2.4-0.1,8.1-0.8,11.1-1.2
				c-2.8,2-5.8,4.2-7.5,5.5c-1.2,1-3,2.8-5,4.9c-0.9,1-2.2,2.5-3.3,3.9c-0.9,1.1-1.7,2.2-2.3,2.8c-1.5,1.7-2.1,2.2-3.3,2.7
				c-0.1,0-0.1,0.2-0.1,0.3c0.1,0.1,0.2,0.2,0.3,0.1c1.2-0.6,1.8-1.1,3.4-2.8c0.6-0.6,1.4-1.7,2.3-2.8c1.1-1.4,2.4-2.9,3.3-3.9
				c1.9-2.1,3.8-3.9,5-4.8c1.8-1.5,5.2-3.9,8.2-6.1c0.1-0.1,0.2-0.2,0.3-0.2c2.4-1.7,4.5-3.2,5.3-3.9c2.1-1.7,4.1-1.2,4.6-1
				c0.6,0.2,1.1,0.6,1.3,1c0.3,0.6,0,2.2-1.5,4.2c0,0,0,0,0,0c-0.8,1-1.8,2.1-3.4,3.2c-1.7,1.3-3.8,3-5.7,4.7c0,0,0,0,0,0
				c-1,0.9-2,1.8-2.9,2.7c0,0,0,0,0,0c-1.6,1.6-3,3.1-3.9,4.2c-0.4,0.5-0.9,1.1-1.4,1.8c-2.5,3.2-6.4,8.2-8.2,11.7
				c-1.5,3-4.3,8.5-5.5,12c-0.1,0.4-0.3,0.8-0.5,1.3c0,0,0,0,0,0c-1.3,2.8-3.5,5.9-5.3,7.8c-0.1,0.1-0.1,0.2,0,0.3c0,0,0,0,0,0
				c0.1,0.1,0.2,0.1,0.3,0c1.8-1.9,4-5,5.3-7.8c1.4-1.2,4.5-2.8,7.8-3.6c2.9-0.8,5.6-0.6,9,0.5c2.5,0.8,4.2,2.4,4.8,3.5
				c0.3,0.4,0.3,0.7,0.3,0.9c-0.3,1.3-2.8,1.9-7.4,1.9c-2.1,0-6.3,1.2-8.9,4.5c-0.3,0.4-0.7,0.9-1.2,1.5c-2,2.6-5.3,6.9-7.6,8.4
				c-1,0.6-1.9,1.4-2.8,2c-2.4,1.8-4.8,3.7-8.2,4.4c-1.1,0.2-2.5,0.4-4.1,0.7c-2.4,0.3-4.8,0.7-6.3,1.2c-8,2.5-18.4,9.9-24.6,14.4
				c-1.5,1.1-2.9,2-3.8,2.6c-4.5,3-15.9,9.3-26.4,15.1l0.3,0.4c10.5-5.8,21.8-12.1,26.4-15.1c0.9-0.6,2.2-1.5,3.8-2.6
				c6.2-4.4,16.6-11.8,24.5-14.3c1.5-0.5,3.9-0.8,6.2-1.2c1.6-0.2,3.1-0.4,4.1-0.7c3.5-0.8,6-2.7,8.4-4.5c0.9-0.7,1.8-1.4,2.8-2
				c2.3-1.5,5.6-5.9,7.6-8.5c0.5-0.6,0.9-1.1,1.2-1.5c2.6-3.2,6.6-4.3,8.6-4.3c4.9,0,7.4-0.7,7.7-2.2c0.1-0.3-0.1-0.7-0.4-1.2
				c-0.7-1.2-2.5-2.9-5.1-3.7c-3.5-1.1-6.3-1.3-9.3-0.5c-2.9,0.7-5.6,2.1-7.2,3.2c0.1-0.2,0.1-0.3,0.2-0.5c1.2-3.5,4-9,5.5-12
				c0.9-1.8,2.4-4,4-6.2c0,0,0,0,0,0c0.1,0,0.3,0,0.5,0c0.9,0.1,2.2,0.2,3-1.3c0.4-0.7,0.4-1.3,0.2-1.9c-0.2-0.5-0.5-0.8-0.7-1
				c0.4-0.5,0.7-0.9,1.1-1.3c0.4-0.5,0.8-1,1.1-1.4c0.2,0.1,1.9,0.7,4.7,1.2c3.2,0.5,4.1-2.4,4.3-3.3c0-0.1,0-0.3-0.1-0.5
				c-0.6-0.9-3.1-1.8-4.4-2.2c0.8-0.8,1.7-1.6,2.6-2.4c0.3-0.1,2.4-0.5,6.6-1.2c4.1-0.7,6.7-2.3,7.1-4.5c0-0.1,0.1-0.2,0.1-0.2
				c0-0.1,0.1-0.1,0.1-0.2c0,0,0-0.1,0-0.1c0-0.1,0-0.3-0.1-0.5c-0.4-1.2-1.4-1.4-2.3-1.6l-0.2,0c-0.5-0.1-1.2-0.2-1.9-0.2
				c1.3-1.9,1.6-3.5,1.3-4.3c-0.2-0.5-0.8-1-1.6-1.3c-1.6-0.6-3.5-0.1-5,1.1c-0.8,0.7-2.9,2.1-5.3,3.8c-0.1,0.1-0.2,0.1-0.3,0.2
				c-2.5,0.4-9.3,1.2-12,1.4c-2.7,0.2-3.1,0.7-4.3,2.4c-0.4-0.1-1.7-0.6-2.7-1c-0.7-0.3-2.3-0.4-3.7,0.7c-0.6,0.5-1.6,1.4-2.8,2.5
				c-1.5,1.3-3.2,2.9-4.3,3.7c-1.7,0.4-3.5,1.5-5.4,2.8c-0.8,0.5-1.7,0.6-2.7,0.8c-1.4,0.2-2.8,0.4-3.8,1.6
				c-0.5,0.7-0.9,1.2-1.3,1.7c-1,1.3-1.7,2.3-3.7,4.3c-2.8,2.8-11,14.5-12.9,18.7c-2,4.5-6.7,11-9.6,11.1c-3.5,0.1-4.2,1.4-6.1,4.6
				l-0.1,0.1c-0.7,1.2-2.7,1.8-6.5,3.1C14,66.6,12.8,67,11.4,67.5z"/>
		</mask>
		<path class="st3" d="M104.3,11.8l0.1,0.2l0,0L104.3,11.8z M105.1,11.1l-0.1-0.2l0.2-0.1l0.1,0.2L105.1,11.1z M105.3,11.2l-0.1,0.1
			l0,0L105.3,11.2z M105.5,11.4l-0.1,0.2v0L105.5,11.4z M108.5,11.8l0,0.2l0,0L108.5,11.8z M108.9,11.8l0-0.2l0,0L108.9,11.8z
			 M111.7,11.2l-0.1-0.2l0.5-0.3l-0.2,0.5L111.7,11.2z M105.1,14.9l0-0.2l0,0L105.1,14.9z M99.2,15.9l0,0.2l-0.7,0.1l0.5-0.5
			L99.2,15.9z M110.1,8.7l0,0.2l0,0L110.1,8.7z M112,9.9l-0.2,0.1v0L112,9.9z M112,10.3l0.2,0.1l0,0L112,10.3z M111.9,10.4l0.2,0.1
			l0,0l0,0L111.9,10.4z M108.8,11.4l0,0.2h0L108.8,11.4z M108.4,11.4l0-0.2l0,0L108.4,11.4z M105.6,11l0.1-0.2l0,0L105.6,11z
			 M105.4,10.8l-0.2,0.1l-0.1-0.1l0.1-0.1L105.4,10.8z M107.6,8.5l-0.2-0.1l0.1-0.1l0.1,0L107.6,8.5z M100.1,21.5l-0.2,0l0,0
			L100.1,21.5z M100.1,21.6l0.2,0l0,0.1l-0.1,0L100.1,21.6z M94.4,20.6l-0.1,0.2L94,20.6l0.2-0.2L94.4,20.6z M95.6,19.3l-0.1-0.1
			l0.1-0.1l0.1,0L95.6,19.3z M96.2,24.5l0,0.2l0,0L96.2,24.5z M91.8,23.5l-0.1,0.2l-0.3-0.1l0.2-0.2L91.8,23.5z M91.9,23.4l0.2,0.1
			l0,0L91.9,23.4z M94.1,20.9l-0.1-0.1l0.1-0.1l0.1,0.1L94.1,20.9z M89.5,29.1l0.2,0.1l0,0L89.5,29.1z M86.8,30.2l0-0.2l0,0
			L86.8,30.2z M86.6,30.2l0,0.2l-0.4,0l0.2-0.3L86.6,30.2z M89.2,26.8L89,26.7l0.1-0.2l0.2,0.1L89.2,26.8z M-28.8,78.2l0-0.2h0
			L-28.8,78.2z M-31,78.7l-0.1,0.1l-0.2-0.2l0.3-0.1L-31,78.7z M-30.6,79.1l0,0.2l-0.1,0l-0.1-0.1L-30.6,79.1z M-28.6,78.6l0,0.2
			l0,0L-28.6,78.6z M11.6,68l0.1,0.2h0L11.6,68z M15.3,66.7l-0.1-0.2L15.3,66.7z M22,63.4l0.2,0.1l0,0L22,63.4z M22.1,63.3l-0.2-0.1
			l0,0L22.1,63.3z M27.9,58.9l0,0.2h0L27.9,58.9z M37.9,47.5l-0.2-0.1l0,0L37.9,47.5z M50.7,29l0.1,0.1l0,0L50.7,29z M54.4,24.6
			l0.2,0.1v0L54.4,24.6z M55.8,22.9l0.2,0.1v0L55.8,22.9z M59.3,21.4l0-0.2l0,0L59.3,21.4z M62.1,20.6l0.1,0.2l0,0L62.1,20.6z
			 M66.4,18.2L66.4,18l0.2,0.3L66.4,18.2z M65.1,19.4l0.1,0.1l0,0L65.1,19.4z M60.7,22.9l-0.1-0.2l0,0L60.7,22.9z M60.6,23.2
			l-0.2,0.1l0,0L60.6,23.2z M60.7,23.3l0.1-0.2v0L60.7,23.3z M60.9,23.3l-0.1-0.2l0,0L60.9,23.3z M65.4,19.8l0.1,0.1v0L65.4,19.8z
			 M67.6,17.8l0.1,0.2v0L67.6,17.8z M71.9,14l0.1,0.1l0,0L71.9,14z M74.7,11.6l0.1,0.2v0L74.7,11.6z M78,10.9l-0.1,0.2v0L78,10.9z
			 M80.6,11.8l0.1-0.2l0.3,0.1l-0.2,0.2L80.6,11.8z M77.8,15l-0.1-0.1v0L77.8,15z M74.9,18.2l0.2,0.1l0,0L74.9,18.2z M68.2,24.3
			l0.1,0.2l0,0L68.2,24.3z M68.1,24.6L68,24.7l0,0L68.1,24.6z M68.2,24.7l0.1-0.2v0L68.2,24.7z M68.4,24.7l0.1,0.2v0L68.4,24.7z
			 M75.2,18.5l0.2,0.1l0,0L75.2,18.5z M78.1,15.3l0.1,0.1l0,0L78.1,15.3z M81.1,11.9l0.2,0.1l0,0l0,0L81.1,11.9z M81.1,11.9l0.2,0.1
			l0,0l0,0L81.1,11.9z M81.1,11.8l0.2,0.1l0,0L81.1,11.8z M85.2,9.5l0-0.2l0,0L85.2,9.5z M96.3,8.3l0-0.2l0.1,0.4L96.3,8.3z
			 M88.8,13.8l-0.1-0.2v0L88.8,13.8z M83.8,18.7l-0.1-0.1v0L83.8,18.7z M80.5,22.6l0.2,0.1v0L80.5,22.6z M78.3,25.3l-0.1-0.1v0
			L78.3,25.3z M75,28.1l0.1,0.2l0,0L75,28.1z M74.9,28.3l0.2-0.1l0,0L74.9,28.3z M75.2,28.5l-0.1-0.2l0,0L75.2,28.5z M78.6,25.6
			l0.1,0.1v0L78.6,25.6z M80.9,22.9l0.2,0.1v0L80.9,22.9z M84.2,19L84,18.9l0,0L84.2,19z M89.1,14.2l0.1,0.2l0,0L89.1,14.2z
			 M97.3,8.1l0.1,0.2l0,0L97.3,8.1z M97.7,7.8L97.8,8l0,0L97.7,7.8z M102.9,4l-0.1-0.2l0,0L102.9,4z M107.6,2.9l0.1-0.2h0L107.6,2.9
			z M108.9,3.9l0.2-0.1v0L108.9,3.9z M107.3,8.1l0.2,0.1l0,0l0,0L107.3,8.1z M107.3,8.2l0.2,0.1l0,0l0,0L107.3,8.2z M104,11.4
			l-0.1-0.2L104,11.4z M98.3,16.1l0.1,0.1l0,0l0,0L98.3,16.1z M98.3,16.1l0.1,0.1l0,0l0,0L98.3,16.1z M95.4,18.8l0.1,0.1l0,0
			L95.4,18.8z M95.4,18.8l-0.1-0.1l0,0L95.4,18.8z M91.5,23l-0.2-0.1v0L91.5,23z M90.1,24.9l0.2,0.1l0,0L90.1,24.9z M81.9,36.6
			l-0.2-0.1l0,0L81.9,36.6z M76.4,48.6l0.2,0.1v0L76.4,48.6z M75.9,49.9l0.2,0.1l0,0l0,0L75.9,49.9z M75.9,49.9l0.2,0.1l0,0l0,0
			L75.9,49.9z M70.6,57.6l-0.1-0.1v0L70.6,57.6z M70.6,57.9l-0.1,0.1l0,0L70.6,57.9z M70.6,58l0.1-0.2l0,0L70.6,58z M70.9,58
			l-0.1-0.1l0,0L70.9,58z M76.2,50.1l-0.2-0.1l0,0l0,0L76.2,50.1z M84,46.5l-0.1-0.2l0,0L84,46.5z M93,47L93,47.2l0,0L93,47z
			 M97.9,50.5l-0.2,0.1v0L97.9,50.5z M98.2,51.3l-0.2,0v0L98.2,51.3z M90.8,53.2v0.2l0,0V53.2z M81.9,57.7l-0.2-0.1v0L81.9,57.7z
			 M80.7,59.2l-0.2-0.1v0L80.7,59.2z M73.2,67.6l-0.1-0.2l0,0L73.2,67.6z M70.4,69.6l0.1,0.2v0L70.4,69.6z M62.1,74l0-0.2l0,0
			L62.1,74z M58,74.7l0-0.2h0L58,74.7z M51.7,75.9l-0.1-0.2l0,0L51.7,75.9z M27.1,90.2l0.1,0.2h0L27.1,90.2z M23.3,92.9l-0.1-0.2
			l0,0L23.3,92.9z M-3.1,108l-0.1,0.1l-0.2-0.2l0.2-0.1L-3.1,108z M-2.7,108.3l0.1,0.2l-0.1,0.1l-0.1-0.1L-2.7,108.3z M23.6,93.2
			l-0.1-0.2l0,0L23.6,93.2z M27.4,90.6l-0.1-0.2l0,0L27.4,90.6z M51.9,76.3l-0.1-0.2l0,0L51.9,76.3z M58.2,75.1l0-0.2l0,0L58.2,75.1
			z M62.3,74.5l0-0.2l0,0L62.3,74.5z M70.7,70l0.1,0.2l0,0L70.7,70z M73.5,68l-0.1-0.2l0,0L73.5,68z M81.1,59.5l0.2,0.1l0,0
			L81.1,59.5z M82.2,58l0.2,0.1l0,0L82.2,58z M90.9,53.7v0.2h0L90.9,53.7z M98.6,51.5l-0.2,0l0,0L98.6,51.5z M98.2,50.3l0.2-0.1v0
			L98.2,50.3z M93.1,46.6l-0.1,0.2l0,0L93.1,46.6z M83.8,46.1l0-0.2l0,0L83.8,46.1z M76.6,49.3l0.1,0.2l-0.5,0.4l0.2-0.6L76.6,49.3z
			 M76.8,48.8l0.2,0.1v0L76.8,48.8z M82.3,36.8l-0.2-0.1v0L82.3,36.8z M86.3,30.6l-0.2-0.1l0.1-0.1l0.1,0L86.3,30.6z M86.3,30.6v0.2
			l0,0L86.3,30.6z M86.8,30.7l0-0.2l0,0L86.8,30.7z M89.9,29.4l0.2,0.1v0L89.9,29.4z M90.1,27.5l0.2-0.1v0L90.1,27.5z M89.4,26.5
			l-0.1,0.2l-0.1-0.1l0.1-0.2L89.4,26.5z M90.5,25.2l-0.2-0.1v0L90.5,25.2z M91.5,23.8l-0.2-0.1l0.1-0.1l0.1,0.1L91.5,23.8z
			 M96.2,25l0,0.2l0,0L96.2,25z M100.5,21.6l0.2,0v0L100.5,21.6z M100.4,21.1l-0.2,0.1v0L100.4,21.1z M96,18.9l-0.1,0.2L95.6,19
			l0.2-0.2L96,18.9z M98.6,16.5l-0.1-0.1l0,0l0.1,0L98.6,16.5z M105.2,15.4l0-0.2l0,0L105.2,15.4z M112.3,10.9l0.2,0v0L112.3,10.9z
			 M112.3,10.6l-0.2-0.1l0,0l0,0L112.3,10.6z M112.5,10.4l0.2,0.1l0,0L112.5,10.4z M112.5,10.4l-0.2,0l0,0l0,0L112.5,10.4z
			 M112.4,9.8l0.2-0.1v0L112.4,9.8z M110.1,8.3l0,0.2l0,0L110.1,8.3z M109.9,8.2l0-0.2l0,0L109.9,8.2z M108,8.1l0,0.2l-0.4,0
			l0.2-0.3L108,8.1z M109.3,3.8l-0.2,0.1v0L109.3,3.8z M107.6,2.5l-0.1,0.2l0,0L107.6,2.5z M102.6,3.6l0.1,0.2l0,0L102.6,3.6z
			 M97.4,7.5l-0.1-0.2l0,0L97.4,7.5z M97.1,7.7l0.1,0.2l0,0l0,0L97.1,7.7z M85.1,9l0,0.2l0,0L85.1,9z M80.8,11.5l0.2,0.1l-0.1,0.1
			l-0.1,0L80.8,11.5z M78.1,10.5L78,10.7v0L78.1,10.5z M74.4,11.2l0.1,0.2v0L74.4,11.2z M71.6,13.7l-0.1-0.1v0L71.6,13.7z
			 M67.3,17.4l0.1,0.2l0,0l0,0L67.3,17.4z M61.9,20.2L61.7,20v0L61.9,20.2z M59.2,21l0,0.2v0L59.2,21z M55.4,22.6l-0.2-0.1l0,0
			L55.4,22.6z M54.1,24.3l-0.2-0.1v0L54.1,24.3z M50.3,28.6l-0.1-0.1v0L50.3,28.6z M37.5,47.3l0.2,0.1l0,0L37.5,47.3z M27.8,58.4
			l0,0.2l0,0L27.8,58.4z M21.7,63l-0.2-0.1l0,0L21.7,63z M21.7,63.1l0.2,0.1l0,0L21.7,63.1z M15.1,66.3l0.1,0.2l0,0L15.1,66.3z
			 M104.1,11.6c0.3-0.2,0.6-0.5,0.9-0.7l0.3,0.3c-0.3,0.2-0.6,0.5-0.9,0.7L104.1,11.6z M105.3,10.9c0,0,0.1,0.1,0.1,0.1l-0.3,0.3
			c-0.1-0.1-0.1-0.1-0.2-0.2L105.3,10.9z M105.4,11.1c0.1,0.1,0.1,0.1,0.2,0.2l-0.2,0.3c-0.1-0.1-0.2-0.1-0.3-0.2L105.4,11.1z
			 M105.6,11.2c0.5,0.3,1.5,0.5,2.9,0.4l0,0.4c-1.4,0.1-2.5,0-3.1-0.4L105.6,11.2z M108.5,11.6c0.1,0,0.2,0,0.4,0l0,0.4
			c-0.1,0-0.3,0-0.4,0L108.5,11.6z M108.9,11.6c0.8,0,1.9-0.1,2.7-0.5l0.2,0.3c-0.9,0.5-2.1,0.6-2.9,0.6L108.9,11.6z M111.9,11.3
			c-0.5,1.2-2,3.1-6.8,3.8l-0.1-0.4c4.7-0.8,6.1-2.5,6.5-3.6L111.9,11.3z M105.1,15.1c-2.9,0.5-4.8,0.8-5.8,1l-0.1-0.4
			c1-0.2,2.9-0.5,5.9-1L105.1,15.1z M99.1,15.8c1.7-1.5,3.5-3,5.1-4.2l0.2,0.3c-1.5,1.2-3.3,2.6-5,4.2L99.1,15.8z M109.9,8.5l0.2,0
			L110,8.9l-0.2,0L109.9,8.5z M110.1,8.5c0.5,0.1,1,0.2,1.3,0.4c0.4,0.2,0.6,0.5,0.8,0.9l-0.4,0.1c-0.1-0.4-0.3-0.6-0.6-0.7
			c-0.3-0.2-0.7-0.2-1.2-0.4L110.1,8.5z M112.2,9.8c0,0.1,0.1,0.2,0.1,0.3c0,0.1-0.1,0.2-0.1,0.2l-0.3-0.2c0,0,0,0,0-0.1
			c0,0,0,0,0,0c0,0,0,0,0,0c0,0,0,0,0-0.2L112.2,9.8z M112.2,10.4C112.2,10.4,112.1,10.4,112.2,10.4l-0.4-0.1c0,0,0-0.1,0.1-0.1
			L112.2,10.4z M112.1,10.5c-0.4,0.5-1,0.7-1.6,0.9c-0.6,0.1-1.2,0.2-1.7,0.2l0-0.4c0.5,0,1.1-0.1,1.6-0.2c0.6-0.1,1.1-0.3,1.3-0.7
			L112.1,10.5z M108.8,11.6c-0.1,0-0.3,0-0.4,0l0-0.4c0.1,0,0.3,0,0.4,0L108.8,11.6z M108.5,11.6c-1.9,0.1-2.7-0.2-3-0.5l0.3-0.3
			c0.2,0.2,0.8,0.5,2.7,0.4L108.5,11.6z M105.4,11.1c-0.1-0.1-0.1-0.2-0.2-0.2l0.4-0.2c0,0,0,0.1,0.1,0.1L105.4,11.1z M105.3,10.6
			c0.9-0.8,1.6-1.5,2.2-2.2l0.3,0.2c-0.6,0.7-1.3,1.5-2.2,2.3L105.3,10.6z M107.6,8.3c0.9,0,1.6,0,2.3,0.1l-0.1,0.4
			c-0.6-0.1-1.3-0.2-2.2-0.1L107.6,8.3z M100.2,21.2c0,0.1,0.1,0.1,0.1,0.2c0,0.1,0,0.1,0,0.1l-0.4-0.1c0,0,0,0,0,0c0,0,0,0,0,0
			c0,0,0,0,0,0c0,0,0,0,0,0L100.2,21.2z M100.3,21.5C100.3,21.5,100.3,21.5,100.3,21.5C100.3,21.6,100.3,21.6,100.3,21.5l-0.4,0
			c0,0,0,0,0-0.1c0,0,0,0,0,0L100.3,21.5z M100.1,21.7c-1,0.3-2.3,0.1-3.4-0.1c-1.1-0.3-2-0.7-2.4-0.9l0.2-0.4
			c0.4,0.2,1.3,0.6,2.4,0.8c1.1,0.3,2.3,0.4,3.2,0.1L100.1,21.7z M94.2,20.4c0.4-0.4,0.8-0.9,1.3-1.3l0.3,0.3
			c-0.4,0.4-0.9,0.9-1.3,1.3L94.2,20.4z M95.7,19.1c0.7,0.2,1.7,0.5,2.6,0.9c0.4,0.2,0.9,0.4,1.2,0.6c0.3,0.2,0.6,0.4,0.8,0.6
			l-0.3,0.2c-0.1-0.1-0.3-0.3-0.6-0.5c-0.3-0.2-0.7-0.4-1.2-0.6c-0.9-0.4-1.8-0.7-2.5-0.9L95.7,19.1z M100.1,22.1
			c-0.2,0.6-0.5,1.3-1.2,1.9c-0.6,0.6-1.5,0.9-2.8,0.7l0.1-0.4c1.1,0.2,1.9-0.1,2.4-0.6c0.5-0.5,0.9-1.2,1-1.7L100.1,22.1z
			 M96.2,24.7c-2.4-0.4-3.9-0.9-4.4-1.1l0.1-0.4c0.5,0.2,2,0.7,4.4,1.1L96.2,24.7z M91.7,23.3C91.7,23.3,91.7,23.3,91.7,23.3
			c0.1-0.1,0.1-0.1,0.1-0.1l0.3,0.3c0,0,0,0,0,0c0,0,0,0,0,0.1L91.7,23.3z M91.7,23.2c0.5-0.7,1.3-1.6,2.2-2.5l0.3,0.3
			c-0.9,0.9-1.6,1.8-2.1,2.5L91.7,23.2z M94.1,20.7c0.1,0.1,1,0.5,2.1,0.8c1.1,0.3,2.5,0.6,3.6,0.4l0.1,0.4c-1.2,0.3-2.7,0-3.8-0.4
			c-1.2-0.3-2-0.8-2.2-0.8L94.1,20.7z M89.9,27.5c0.2,0.5,0.1,1.1-0.2,1.7L89.3,29c0.3-0.5,0.3-1,0.2-1.4L89.9,27.5z M89.6,29.2
			c-0.4,0.7-0.9,1-1.4,1.2c-0.5,0.1-1,0.1-1.5,0l0-0.4c0.4,0,0.9,0.1,1.3,0c0.4-0.1,0.8-0.4,1.2-1L89.6,29.2z M86.8,30.4
			c-0.1,0-0.1,0-0.2,0l0-0.4c0.1,0,0.1,0,0.2,0L86.8,30.4z M86.4,30.1c0.9-1.2,1.8-2.3,2.6-3.4l0.3,0.2c-0.8,1.1-1.7,2.2-2.6,3.4
			L86.4,30.1z M89.3,26.7c0.2,0.2,0.4,0.5,0.6,0.8l-0.4,0.1c-0.1-0.3-0.3-0.5-0.4-0.6L89.3,26.7z M11.4,67.7
			c-6.3,2.2-30.3,8.5-40.2,10.6l-0.1-0.4c9.9-2.1,33.9-8.4,40.1-10.6L11.4,67.7z M-28.7,78.3c-0.7,0.1-1.4,0.3-2.2,0.5l-0.1-0.4
			c0.8-0.2,1.5-0.4,2.2-0.5L-28.7,78.3z M-30.9,78.5l0.4,0.4l-0.3,0.3l-0.4-0.4L-30.9,78.5z M-30.7,78.9c0.7-0.2,1.4-0.3,2-0.5
			l0.1,0.4c-0.6,0.1-1.3,0.3-2,0.5L-30.7,78.9z M-28.7,78.4c9.9-2.1,33.9-8.4,40.2-10.6l0.1,0.4c-6.3,2.2-30.3,8.5-40.2,10.6
			L-28.7,78.4z M11.5,67.8c1.4-0.5,2.7-0.9,3.8-1.3l0.1,0.4c-1.1,0.4-2.3,0.8-3.7,1.3L11.5,67.8z M15.3,66.5c2-0.7,3.5-1.2,4.5-1.7
			c1.1-0.5,1.7-1,2.1-1.6l0.3,0.2c-0.4,0.7-1.2,1.2-2.3,1.7c-1.1,0.5-2.6,1-4.6,1.7L15.3,66.5z M21.9,63.3l0.1-0.1l0.3,0.2l-0.1,0.1
			L21.9,63.3z M21.9,63.1c0.9-1.5,1.6-2.7,2.4-3.4c0.9-0.7,1.9-1.1,3.6-1.1l0,0.4c-1.6,0.1-2.5,0.4-3.3,1c-0.8,0.7-1.4,1.7-2.3,3.3
			L21.9,63.1z M27.9,58.7c0.8,0,1.7-0.5,2.6-1.2c0.9-0.7,1.9-1.8,2.8-2.9c1.8-2.3,3.5-5.1,4.4-7.1l0.4,0.2c-0.9,2-2.6,4.8-4.4,7.1
			c-0.9,1.2-1.9,2.2-2.9,3c-1,0.8-1.9,1.3-2.8,1.3L27.9,58.7z M37.7,47.5c0.9-2.1,3.4-6.1,6.1-9.8c2.6-3.8,5.4-7.4,6.8-8.8l0.3,0.3
			c-1.4,1.4-4.1,5-6.7,8.7c-2.6,3.8-5.1,7.7-6,9.8L37.7,47.5z M50.5,28.8c2-2,2.8-3,3.8-4.3l0.3,0.2c-1,1.3-1.8,2.3-3.8,4.4
			L50.5,28.8z M54.3,24.5c0.4-0.5,0.8-1.1,1.3-1.7l0.3,0.2c-0.5,0.7-0.9,1.2-1.3,1.7L54.3,24.5z M55.6,22.8c1-1.2,2.3-1.4,3.6-1.6
			l0.1,0.4C58,21.8,56.8,22,55.9,23L55.6,22.8z M59.3,21.2c1-0.1,2-0.3,2.8-0.8l0.2,0.3c-0.9,0.6-2,0.7-2.9,0.9L59.3,21.2z M62,20.4
			c1.5-1,3-1.9,4.3-2.5l0.1,0.4c-1.3,0.5-2.8,1.4-4.3,2.4L62,20.4z M66.6,18.3c-0.4,0.4-0.9,0.8-1.3,1.3L65,19.3
			c0.5-0.5,0.9-0.9,1.3-1.3L66.6,18.3z M65.3,19.6c-1.4,1.4-2.9,2.9-4.5,3.5l-0.1-0.4c1.5-0.6,3-2,4.4-3.4L65.3,19.6z M60.8,23.1
			C60.8,23.1,60.8,23.1,60.8,23.1C60.8,23.1,60.8,23.1,60.8,23.1C60.8,23.1,60.8,23.1,60.8,23.1l-0.3,0.2c-0.1-0.2-0.1-0.5,0.2-0.6
			L60.8,23.1z M60.8,23.1C60.8,23.1,60.8,23.1,60.8,23.1l-0.2,0.4c-0.1,0-0.1-0.1-0.2-0.2L60.8,23.1z M60.8,23.1
			C60.8,23.1,60.8,23.1,60.8,23.1C60.8,23.1,60.8,23.1,60.8,23.1l0.2,0.4c-0.1,0.1-0.3,0-0.4,0L60.8,23.1z M60.8,23.1
			c1.6-0.6,3-2.1,4.5-3.5l0.3,0.3c-1.4,1.4-2.9,2.9-4.6,3.6L60.8,23.1z M65.3,19.6c0.7-0.7,1.4-1.4,2.1-2l0.2,0.3
			c-0.7,0.5-1.4,1.2-2.1,2L65.3,19.6z M67.4,17.6c1.1-0.9,2.8-2.4,4.3-3.8l0.3,0.3c-1.5,1.4-3.2,2.9-4.4,3.8L67.4,17.6z M71.8,13.9
			c1.2-1,2.3-2,2.8-2.5l0.2,0.3c-0.6,0.4-1.7,1.4-2.8,2.5L71.8,13.9z M74.6,11.4c1.3-1,2.8-1,3.5-0.7l-0.2,0.4
			c-0.5-0.2-1.9-0.3-3.1,0.6L74.6,11.4z M78.1,10.7c0.9,0.4,2,0.7,2.5,0.9L80.5,12c-0.6-0.2-1.7-0.6-2.6-0.9L78.1,10.7z M80.7,11.9
			c-0.7,1-1.6,2-2.8,3.2l-0.3-0.3c1.1-1.2,2-2.2,2.7-3.1L80.7,11.9z M77.9,15.1c-0.9,0.9-1.8,2-2.9,3.2L74.7,18
			c1.1-1.2,2.1-2.3,2.9-3.2L77.9,15.1z M75,18.3c-2.4,2.8-4.3,4.9-6.8,6.2l-0.2-0.4c2.3-1.3,4.2-3.3,6.7-6.1L75,18.3z M68.3,24.5
			C68.3,24.5,68.3,24.5,68.3,24.5C68.3,24.5,68.3,24.5,68.3,24.5C68.3,24.5,68.3,24.5,68.3,24.5L68,24.7c-0.1-0.2-0.1-0.5,0.1-0.6
			L68.3,24.5z M68.3,24.5C68.3,24.5,68.3,24.5,68.3,24.5l-0.2,0.4c-0.1,0-0.1-0.1-0.1-0.1L68.3,24.5z M68.3,24.5
			C68.3,24.5,68.3,24.5,68.3,24.5C68.3,24.5,68.3,24.5,68.3,24.5l0.2,0.4c-0.1,0.1-0.3,0.1-0.4,0L68.3,24.5z M68.3,24.6
			c2.4-1.3,4.3-3.4,6.7-6.2l0.3,0.3c-2.4,2.8-4.4,4.9-6.9,6.3L68.3,24.6z M75.1,18.3c1.1-1.2,2.1-2.3,2.9-3.2l0.3,0.3
			c-0.9,0.9-1.8,1.9-2.9,3.2L75.1,18.3z M78,15.2c1.2-1.3,2.2-2.4,3-3.4l0.3,0.2c-0.8,1.1-1.8,2.1-3,3.5L78,15.2z M80.9,11.8
			C80.9,11.8,80.9,11.9,80.9,11.8C80.9,11.8,80.9,11.8,80.9,11.8C80.9,11.7,81,11.7,80.9,11.8l0.3,0.2c0,0,0,0,0-0.1
			c0,0,0-0.1,0-0.1c0,0,0,0,0,0L80.9,11.8z M81,11.7L81,11.7l0.4,0.2l0,0L81,11.7z M81,11.7c0.6-0.9,1-1.5,1.6-1.8
			c0.6-0.4,1.3-0.5,2.6-0.6l0,0.4c-1.3,0.1-1.9,0.2-2.4,0.5c-0.5,0.3-0.9,0.8-1.5,1.7L81,11.7z M85.2,9.3c2.4-0.1,8.1-0.8,11-1.2
			l0.1,0.4c-3,0.4-8.7,1.1-11.1,1.2L85.2,9.3z M96.4,8.4c-2.8,2-5.8,4.2-7.5,5.5l-0.3-0.3c1.7-1.4,4.6-3.5,7.5-5.6L96.4,8.4z
			 M88.9,14c-1.2,1-3,2.8-5,4.8l-0.3-0.3c2-2.1,3.8-3.9,5-4.9L88.9,14z M84,18.8c-0.9,1-2.1,2.5-3.3,3.9l-0.3-0.3
			c1.1-1.4,2.4-2.9,3.3-3.9L84,18.8z M80.7,22.7c-0.9,1.1-1.7,2.2-2.3,2.8l-0.3-0.3c0.5-0.6,1.4-1.6,2.3-2.7L80.7,22.7z M78.4,25.5
			c-1.5,1.7-2.1,2.2-3.3,2.8l-0.2-0.4c1.1-0.5,1.7-1,3.2-2.7L78.4,25.5z M75.1,28.2C75.1,28.2,75.1,28.2,75.1,28.2
			C75.1,28.2,75.1,28.2,75.1,28.2C75.1,28.2,75.1,28.2,75.1,28.2l-0.3,0.2c-0.1-0.2-0.1-0.5,0.2-0.6L75.1,28.2z M75.1,28.2
			C75.1,28.3,75.1,28.3,75.1,28.2C75.2,28.3,75.2,28.3,75.1,28.2l0.2,0.4c-0.2,0.1-0.5,0-0.6-0.2L75.1,28.2z M75.2,28.3
			c1.2-0.5,1.8-1.1,3.3-2.8l0.3,0.3c-1.5,1.7-2.2,2.3-3.4,2.9L75.2,28.3z M78.5,25.5c0.5-0.6,1.4-1.6,2.3-2.8l0.3,0.3
			c-0.9,1.1-1.8,2.2-2.3,2.8L78.5,25.5z M80.7,22.7c1.1-1.4,2.4-2.9,3.3-3.9l0.3,0.3c-0.9,0.9-2.1,2.5-3.2,3.9L80.7,22.7z M84,18.9
			c1.9-2.1,3.8-3.9,5-4.9l0.3,0.3c-1.1,0.9-3,2.7-4.9,4.8L84,18.9z M89,14c1.8-1.5,5.2-3.9,8.2-6.1l0.2,0.3
			c-3.1,2.2-6.4,4.6-8.2,6.1L89,14z M97.2,7.9c0.1-0.1,0.2-0.2,0.3-0.2L97.8,8c-0.1,0.1-0.2,0.2-0.3,0.2L97.2,7.9z M97.5,7.7
			c2.4-1.7,4.5-3.2,5.3-3.9l0.3,0.3c-0.8,0.7-2.9,2.2-5.3,3.9L97.5,7.7z M102.8,3.8c2.2-1.8,4.2-1.3,4.8-1.1l-0.1,0.4
			c-0.5-0.2-2.4-0.7-4.4,1L102.8,3.8z M107.6,2.7c0.3,0.1,0.6,0.3,0.9,0.4c0.2,0.2,0.4,0.4,0.5,0.6L108.7,4
			c-0.1-0.1-0.2-0.3-0.4-0.4c-0.2-0.2-0.5-0.3-0.8-0.4L107.6,2.7z M109,3.8c0.2,0.4,0.1,1-0.1,1.7c-0.2,0.8-0.7,1.7-1.5,2.7L107.2,8
			c0.8-1,1.2-1.9,1.4-2.6c0.2-0.7,0.2-1.2,0.1-1.5L109,3.8z M107.5,8.3C107.5,8.3,107.5,8.3,107.5,8.3l-0.3-0.2c0,0,0-0.1,0.1-0.1
			L107.5,8.3z M107.5,8.3c-0.8,1-1.9,2.1-3.4,3.3l-0.2-0.3c1.5-1.1,2.6-2.2,3.3-3.2L107.5,8.3z M104.1,11.5c-1.7,1.3-3.7,3-5.7,4.7
			L98.2,16c1.9-1.7,3.9-3.4,5.7-4.7L104.1,11.5z M98.4,16.3C98.4,16.3,98.4,16.3,98.4,16.3C98.4,16.3,98.4,16.3,98.4,16.3
			C98.4,16.3,98.4,16.3,98.4,16.3L98.1,16c0,0,0,0,0.1-0.1L98.4,16.3z M98.4,16.3c-1,0.9-2,1.8-2.9,2.7l-0.3-0.3
			c0.9-0.9,1.9-1.8,2.9-2.7L98.4,16.3z M95.5,19L95.5,19L95.5,19C95.5,19,95.5,19,95.5,19L95.5,19L95.5,19L95.5,19L95.5,19L95.5,19
			L95.5,19L95.5,19L95.5,19L95.5,19L95.5,19L95.5,19L95.5,19L95.5,19L95.5,19L95.5,19L95.5,19L95.5,19L95.5,19
			C95.5,19,95.5,19,95.5,19L95.5,19L95.5,19L95.5,19L95.5,19L95.5,19L95.5,19L95.5,19L95.5,19L95.5,19L95.5,19L95.5,19L95.5,19
			L95.5,19L95.5,19L95.5,19L95.5,19L95.5,19L95.5,19L95.5,19L95.5,19L95.5,19L95.5,19L95.5,19L95.5,19L95.5,19L95.5,19L95.5,19
			L95.5,19L95.5,19L95.5,19L95.5,19L95.5,19L95.5,19L95.5,19L95.5,19L95.5,19L95.5,19L95.5,19L95.5,19L95.5,19L95.5,19L95.5,19
			L95.5,19L95.5,19L95.5,19L95.5,19C95.5,19,95.5,19,95.5,19L95.5,19L95.5,19L95.5,19L95.5,19L95.5,19L95.5,19L95.5,19L95.5,19
			L95.5,19C95.5,19,95.5,19,95.5,19L95.5,19L95.5,19L95.5,19L95.5,19L95.5,19L95.5,19L95.5,19L95.5,19C95.5,19,95.5,19,95.5,19
			L95.5,19L95.5,19L95.5,19L95.5,19L95.5,19L95.5,19L95.5,19L95.5,19L95.5,19C95.5,19,95.5,19,95.5,19L95.5,19L95.5,19l-0.3-0.3l0,0
			l0,0l0,0l0,0c0,0,0,0,0,0l0,0l0,0l0,0l0,0l0,0l0,0l0,0l0,0l0,0c0,0,0,0,0,0l0,0l0,0l0,0l0,0l0,0l0,0l0,0l0,0c0,0,0,0,0,0l0,0l0,0
			l0,0l0,0l0,0l0,0l0,0l0,0l0,0v0l0,0l0,0l0,0l0,0l0,0l0,0l0,0l0,0v0l0,0l0,0l0,0l0,0l0,0l0,0l0,0l0,0l0,0c0,0,0,0,0,0l0,0l0,0l0,0
			l0,0l0,0c0,0,0,0,0,0l0,0l0,0c0,0,0,0,0,0l0,0l0,0l0,0l0,0l0,0l0,0l0,0l0,0l0,0v0l0,0l0,0l0,0l0,0l0,0l0,0l0,0l0,0c0,0,0,0,0,0
			l0,0l0,0l0,0l0,0l0,0l0,0l0,0l0,0l0,0c0,0,0,0,0,0l0,0l0,0l0,0l0,0l0,0l0,0l0,0l0,0c0,0,0,0,0,0L95.5,19z M95.5,19
			c-1.6,1.6-3,3.1-3.8,4.2l-0.3-0.2c0.9-1.1,2.2-2.6,3.9-4.2L95.5,19z M91.7,23.2c-0.4,0.5-0.9,1.1-1.4,1.8L90,24.8
			c0.6-0.7,1-1.3,1.4-1.8L91.7,23.2z M90.3,25c-2.6,3.3-6.4,8.2-8.2,11.6l-0.4-0.2c1.8-3.5,5.7-8.5,8.2-11.7L90.3,25z M82.1,36.6
			c-1.5,3-4.3,8.5-5.5,12l-0.4-0.1c1.2-3.5,4-9.1,5.5-12.1L82.1,36.6z M76.6,48.6c-0.1,0.4-0.3,0.9-0.5,1.3l-0.4-0.2
			c0.2-0.4,0.4-0.9,0.5-1.3L76.6,48.6z M75.9,49.9C76,50,76,50,76,50l0,0c0,0,0,0,0,0s0,0,0,0c0,0,0,0,0,0c0,0,0,0,0,0c0,0,0,0,0,0
			c0,0,0,0,0,0c0,0,0,0,0,0c0,0,0,0,0-0.1l-0.4-0.1c0,0,0,0,0-0.1c0,0,0,0,0,0c0,0,0,0,0,0c0,0,0,0,0,0c0,0,0,0,0,0c0,0,0,0,0,0
			c0,0,0,0,0,0c0,0,0,0,0,0v0C75.7,49.7,75.7,49.7,75.9,49.9z M76,49.9c-1.3,2.8-3.5,5.9-5.3,7.8l-0.3-0.3c1.8-1.9,4-4.9,5.2-7.7
			L76,49.9z M70.7,57.8C70.7,57.8,70.7,57.8,70.7,57.8C70.7,57.8,70.7,57.8,70.7,57.8l-0.3,0.3c-0.2-0.1-0.2-0.4,0-0.6L70.7,57.8z
			 M70.7,57.8C70.7,57.8,70.7,57.8,70.7,57.8l-0.2,0.4c0,0,0,0-0.1-0.1L70.7,57.8z M70.8,57.8C70.8,57.8,70.8,57.8,70.8,57.8
			C70.8,57.8,70.8,57.8,70.8,57.8C70.8,57.8,70.8,57.8,70.8,57.8l0.3,0.3c-0.1,0.2-0.4,0.1-0.5,0.1L70.8,57.8z M70.8,57.8
			c1.8-1.9,4-4.9,5.3-7.8l0.4,0.2c-1.3,2.9-3.6,6-5.4,7.9L70.8,57.8z M76.1,50c1.5-1.2,4.5-2.8,7.8-3.7l0.1,0.4
			c-3.3,0.8-6.3,2.5-7.7,3.6L76.1,50z M83.9,46.3c3-0.8,5.7-0.6,9.2,0.5L93,47.2c-3.4-1.1-6.1-1.2-8.9-0.5L83.9,46.3z M93.1,46.8
			c2.6,0.8,4.3,2.4,4.9,3.6l-0.3,0.2c-0.6-1.1-2.3-2.6-4.7-3.4L93.1,46.8z M98.1,50.4c0.1,0.2,0.2,0.4,0.3,0.6
			c0.1,0.2,0.1,0.3,0,0.4L98,51.3c0,0,0,0,0,0c0,0,0,0,0,0c0,0,0-0.1,0-0.1c0-0.1-0.1-0.3-0.2-0.5L98.1,50.4z M98.4,51.4
			c-0.1,0.4-0.3,0.7-0.7,0.9c-0.4,0.3-0.9,0.5-1.5,0.6c-1.3,0.3-3,0.5-5.4,0.5V53c2.3,0,4-0.2,5.3-0.5c0.6-0.2,1.1-0.3,1.4-0.6
			c0.3-0.2,0.5-0.5,0.6-0.7L98.4,51.4z M90.8,53.4c-2.1,0-6.2,1.2-8.8,4.4l-0.3-0.3c2.7-3.3,6.9-4.5,9.1-4.5L90.8,53.4z M82,57.8
			c-0.3,0.4-0.7,0.9-1.2,1.5l-0.3-0.2c0.5-0.6,0.9-1.1,1.2-1.5L82,57.8z M80.9,59.3c-1,1.3-2.3,3-3.7,4.6c-1.4,1.6-2.8,3.1-3.9,3.8
			l-0.2-0.3c1.1-0.7,2.5-2.1,3.8-3.7c1.4-1.6,2.7-3.3,3.7-4.6L80.9,59.3z M73.3,67.7c-1,0.6-1.9,1.3-2.8,2l-0.2-0.3
			c0.9-0.7,1.8-1.4,2.8-2.1L73.3,67.7z M70.5,69.8c-2.4,1.8-4.8,3.7-8.3,4.4l-0.1-0.4c3.4-0.7,5.8-2.6,8.1-4.4L70.5,69.8z
			 M62.2,74.2c-1.1,0.2-2.5,0.4-4.1,0.7L58,74.5c1.6-0.2,3-0.4,4.1-0.7L62.2,74.2z M58.1,74.9c-2.4,0.3-4.8,0.7-6.3,1.2l-0.1-0.4
			c1.5-0.5,4-0.8,6.3-1.2L58.1,74.9z M51.8,76.1c-4,1.3-8.5,3.7-12.9,6.5c-4.4,2.7-8.5,5.7-11.7,7.9L27,90.1
			c3.1-2.2,7.3-5.2,11.7-7.9c4.4-2.7,9-5.2,13-6.5L51.8,76.1z M27.2,90.4c-1.5,1.1-2.9,2-3.8,2.6l-0.2-0.3c0.9-0.6,2.2-1.5,3.8-2.6
			L27.2,90.4z M23.4,93c-4.5,3-15.9,9.3-26.4,15.1l-0.2-0.4C7.4,102,18.7,95.6,23.2,92.7L23.4,93z M-2.9,107.8l0.3,0.4l-0.3,0.3
			l-0.3-0.4L-2.9,107.8z M-2.8,108.1C7.7,102.4,19,96,23.5,93.1l0.2,0.3c-4.5,3-15.8,9.3-26.4,15.1L-2.8,108.1z M23.5,93.1
			c0.9-0.6,2.2-1.5,3.8-2.6l0.2,0.3c-1.6,1.1-2.9,2-3.8,2.6L23.5,93.1z M27.3,90.4c3.1-2.2,7.3-5.2,11.6-7.9c4.4-2.7,9-5.2,12.9-6.5
			l0.1,0.4c-3.9,1.3-8.5,3.7-12.9,6.4c-4.4,2.7-8.5,5.7-11.6,7.9L27.3,90.4z M51.9,76.1c1.5-0.5,3.9-0.8,6.3-1.2l0.1,0.4
			c-2.4,0.3-4.8,0.7-6.2,1.1L51.9,76.1z M58.1,74.9c1.6-0.2,3.1-0.4,4.1-0.7l0.1,0.4c-1.1,0.2-2.6,0.5-4.1,0.7L58.1,74.9z
			 M62.2,74.3c3.5-0.8,5.9-2.6,8.3-4.4l0.2,0.3c-2.4,1.8-4.9,3.7-8.4,4.5L62.2,74.3z M70.5,69.8c0.9-0.7,1.8-1.4,2.8-2l0.2,0.3
			c-1,0.6-1.9,1.3-2.8,2L70.5,69.8z M73.3,67.8c1.1-0.7,2.5-2.2,3.9-3.8c1.4-1.6,2.7-3.3,3.7-4.6l0.3,0.2c-1,1.3-2.4,3-3.7,4.7
			c-1.4,1.6-2.8,3.1-4,3.9L73.3,67.8z M80.9,59.4c0.5-0.6,0.9-1.1,1.2-1.5l0.3,0.3c-0.3,0.4-0.7,0.9-1.2,1.5L80.9,59.4z M82.1,57.9
			c2.6-3.2,6.7-4.4,8.8-4.4l0,0.4c-2,0-5.9,1.1-8.5,4.3L82.1,57.9z M90.9,53.5c2.4,0,4.3-0.2,5.5-0.5c1.3-0.4,1.9-0.9,2-1.5l0.4,0.1
			c-0.2,0.8-1,1.4-2.3,1.8c-1.3,0.4-3.2,0.5-5.6,0.5V53.5z M98.4,51.5c0-0.1,0-0.2,0-0.4c-0.1-0.2-0.2-0.4-0.3-0.6l0.3-0.2
			c0.2,0.3,0.3,0.5,0.3,0.7c0.1,0.2,0.1,0.4,0,0.6L98.4,51.5z M98.1,50.4c-0.7-1.2-2.4-2.8-5-3.6l0.1-0.4c2.7,0.9,4.5,2.5,5.2,3.8
			L98.1,50.4z M93.1,46.8c-3.5-1.1-6.2-1.3-9.2-0.5l-0.1-0.4c3-0.8,5.9-0.6,9.4,0.5L93.1,46.8z M83.9,46.3c-2.9,0.7-5.6,2.1-7.2,3.2
			l-0.2-0.3c1.6-1.1,4.4-2.5,7.3-3.2L83.9,46.3z M76.4,49.2c0.1-0.2,0.1-0.3,0.2-0.5l0.4,0.1c-0.1,0.2-0.1,0.3-0.2,0.5L76.4,49.2z
			 M76.6,48.7c1.2-3.5,4-9,5.5-12l0.4,0.2c-1.5,3-4.3,8.5-5.5,11.9L76.6,48.7z M82.1,36.7c0.9-1.8,2.4-4,4-6.2l0.3,0.2
			c-1.6,2.1-3.1,4.3-4,6.1L82.1,36.7z M86.3,30.4C86.4,30.4,86.4,30.4,86.3,30.4C86.4,30.5,86.4,30.5,86.3,30.4
			C86.4,30.5,86.4,30.5,86.3,30.4C86.4,30.5,86.4,30.5,86.3,30.4C86.4,30.5,86.4,30.5,86.3,30.4C86.4,30.5,86.4,30.5,86.3,30.4
			C86.4,30.4,86.3,30.4,86.3,30.4l0,0.4c0,0-0.1,0-0.1,0c0,0,0,0,0,0c0,0,0,0,0,0c0,0,0,0,0,0c0,0,0,0,0,0L86.3,30.4z M86.3,30.4
			c0.2,0,0.3,0,0.5,0l0,0.4c-0.2,0-0.3,0-0.5,0V30.4z M86.8,30.5c0.4,0,1,0.1,1.5,0c0.5-0.1,1-0.4,1.4-1.2l0.4,0.2
			c-0.4,0.8-1,1.2-1.6,1.4c-0.6,0.2-1.2,0.1-1.6,0.1L86.8,30.5z M89.7,29.3c0.3-0.6,0.4-1.2,0.2-1.7l0.4-0.1c0.2,0.6,0.1,1.3-0.3,2
			L89.7,29.3z M89.9,27.6c-0.1-0.4-0.4-0.7-0.6-0.9l0.3-0.3c0.2,0.2,0.6,0.5,0.7,1.1L89.9,27.6z M89.3,26.4c0.4-0.5,0.7-0.9,1-1.3
			l0.3,0.2c-0.3,0.4-0.7,0.9-1,1.3L89.3,26.4z M90.3,25.1c0.4-0.5,0.8-1,1.1-1.4l0.3,0.2c-0.3,0.4-0.7,0.9-1.1,1.4L90.3,25.1z
			 M91.6,23.6c0.2,0.1,1.8,0.7,4.6,1.1l-0.1,0.4c-2.8-0.5-4.4-1.1-4.7-1.2L91.6,23.6z M96.2,24.8c1.5,0.3,2.5-0.3,3.1-1.1
			c0.6-0.8,0.9-1.7,1-2.1l0.4,0.1c-0.1,0.5-0.4,1.5-1.1,2.3c-0.7,0.8-1.8,1.5-3.5,1.2L96.2,24.8z M100.3,21.6c0-0.1,0-0.2-0.1-0.4
			l0.3-0.2c0.2,0.3,0.2,0.5,0.2,0.7L100.3,21.6z M100.2,21.2c-0.1-0.2-0.4-0.4-0.7-0.6c-0.3-0.2-0.7-0.4-1.2-0.6
			c-0.9-0.4-1.8-0.7-2.5-0.9l0.1-0.4c0.7,0.2,1.6,0.5,2.5,0.9c0.4,0.2,0.9,0.4,1.2,0.6c0.3,0.2,0.6,0.5,0.8,0.7L100.2,21.2z
			 M95.8,18.8c0.8-0.8,1.7-1.6,2.6-2.4l0.3,0.3c-0.9,0.8-1.8,1.6-2.6,2.4L95.8,18.8z M98.5,16.3c0.3-0.1,2.4-0.5,6.6-1.2l0.1,0.4
			c-4.2,0.7-6.3,1.1-6.6,1.2L98.5,16.3z M105.2,15.2c2-0.3,3.7-0.9,4.8-1.6c1.2-0.7,1.9-1.7,2.1-2.7l0.4,0.1c-0.2,1.2-1,2.2-2.2,3
			c-1.2,0.8-2.9,1.4-5,1.7L105.2,15.2z M112.1,10.8c0-0.1,0.1-0.2,0.1-0.3l0.3,0.2c0,0.1-0.1,0.1-0.1,0.2L112.1,10.8z M112.2,10.5
			c0-0.1,0.1-0.1,0.1-0.2l0.4,0.2c0,0.1-0.1,0.1-0.1,0.2L112.2,10.5z M112.3,10.4C112.3,10.4,112.3,10.4,112.3,10.4l0.4,0
			c0,0.1,0,0.1,0,0.2L112.3,10.4z M112.3,10.3c0-0.1,0-0.2-0.1-0.4l0.4-0.1c0.1,0.3,0.1,0.5,0.1,0.7L112.3,10.3z M112.2,9.9
			c-0.3-1-1.2-1.2-2.2-1.4l0.1-0.4c0.9,0.2,2,0.4,2.5,1.7L112.2,9.9z M110,8.5l-0.2,0l0.1-0.4l0.2,0L110,8.5z M109.8,8.4
			c-0.5-0.1-1.1-0.2-1.9-0.1l0-0.4c0.7,0,1.4,0,1.9,0.2L109.8,8.4z M107.8,8c0.6-0.9,1-1.8,1.2-2.5c0.2-0.7,0.2-1.3,0-1.6l0.4-0.2
			c0.2,0.5,0.2,1.1,0,1.9c-0.2,0.8-0.6,1.7-1.3,2.6L107.8,8z M109.1,3.8c-0.2-0.4-0.7-0.9-1.5-1.1l0.1-0.4c0.8,0.3,1.5,0.8,1.7,1.4
			L109.1,3.8z M107.6,2.7c-1.6-0.5-3.4-0.1-4.8,1.1l-0.3-0.3c1.6-1.3,3.5-1.7,5.2-1.1L107.6,2.7z M102.8,3.8
			c-0.8,0.7-2.9,2.1-5.3,3.9l-0.2-0.3c2.4-1.7,4.5-3.2,5.2-3.8L102.8,3.8z M97.5,7.6c-0.1,0.1-0.2,0.1-0.3,0.2L97,7.5
			c0.1-0.1,0.2-0.1,0.3-0.2L97.5,7.6z M97.1,7.9c-2.5,0.4-9.3,1.2-12,1.4l0-0.4c2.6-0.2,9.4-0.9,11.9-1.4L97.1,7.9z M85.1,9.2
			c-1.3,0.1-2.1,0.3-2.6,0.6c-0.5,0.3-0.9,0.9-1.5,1.8l-0.3-0.2c0.6-0.9,1-1.5,1.7-1.9c0.6-0.4,1.4-0.6,2.8-0.7L85.1,9.2z
			 M80.8,11.7c-0.4-0.1-1.8-0.6-2.7-1l0.2-0.4c1,0.4,2.3,0.8,2.7,1L80.8,11.7z M78,10.7c-0.7-0.3-2.2-0.4-3.5,0.7L74.3,11
			c1.4-1.1,3.1-1.1,3.9-0.7L78,10.7z M74.6,11.4c-0.6,0.5-1.6,1.4-2.8,2.5l-0.3-0.3c1.2-1.1,2.3-2,2.9-2.5L74.6,11.4z M71.7,13.8
			c-1.5,1.3-3.2,2.9-4.3,3.7l-0.2-0.3c1.1-0.9,2.8-2.4,4.3-3.7L71.7,13.8z M67.3,17.6c-1.6,0.3-3.4,1.5-5.4,2.8L61.7,20
			c1.9-1.3,3.8-2.5,5.5-2.8L67.3,17.6z M62,20.4c-0.8,0.5-1.8,0.7-2.8,0.8l-0.1-0.4c1-0.1,1.9-0.3,2.6-0.7L62,20.4z M59.2,21.2
			c-1.4,0.2-2.7,0.4-3.6,1.5l-0.3-0.2c1.1-1.3,2.5-1.5,3.9-1.7L59.2,21.2z M55.6,22.7c-0.5,0.7-0.9,1.2-1.3,1.7l-0.3-0.2
			c0.4-0.5,0.8-1.1,1.3-1.7L55.6,22.7z M54.2,24.4c-1,1.3-1.7,2.3-3.8,4.3l-0.3-0.3c2-2,2.7-3,3.7-4.3L54.2,24.4z M50.5,28.8
			c-1.4,1.4-4.1,5-6.8,8.8c-2.6,3.8-5.1,7.7-6.1,9.8l-0.4-0.2c0.9-2.1,3.5-6.1,6.1-9.9c2.6-3.8,5.4-7.4,6.8-8.9L50.5,28.8z
			 M37.7,47.4c-1,2.2-2.7,5-4.5,7.2c-0.9,1.1-1.8,2.1-2.7,2.8c-0.9,0.7-1.8,1.2-2.6,1.2l0-0.4c0.7,0,1.5-0.4,2.3-1.1
			c0.9-0.7,1.8-1.6,2.7-2.7c1.8-2.2,3.5-4.9,4.4-7.1L37.7,47.4z M27.9,58.6c-1.7,0.1-2.7,0.4-3.5,1.1c-0.8,0.7-1.5,1.8-2.4,3.4
			l-0.3-0.2c0.9-1.6,1.6-2.7,2.5-3.5c0.9-0.8,2-1.1,3.8-1.2L27.9,58.6z M21.9,63.1l-0.1,0.1L21.5,63l0.1-0.1L21.9,63.1z M21.8,63.2
			c-0.4,0.7-1.1,1.1-2.2,1.6c-1.1,0.5-2.5,1-4.5,1.6l-0.1-0.4c1.9-0.7,3.4-1.1,4.4-1.6c1.1-0.5,1.7-0.9,2-1.5L21.8,63.2z M15.2,66.4
			c-1.1,0.4-2.3,0.8-3.8,1.3l-0.1-0.4c1.4-0.5,2.7-0.9,3.8-1.3L15.2,66.4z"/>
		<path class="st1" d="M106.7,6.3c1.5-1.2,3.1-2.7,1.9-4c-1.1-1.1-2.7-0.7-4.2,0.5c-1.5,1.2-3,2.3-1.8,3.8
			C103.8,8.2,105.2,7.5,106.7,6.3z"/>
		<path class="st4" d="M103.1,7.5L103.1,7.5c0.7,0.4,1.4,0.4,2,0.2c0.6-0.2,1.3-0.7,1.8-1.2l0,0c0.6-0.5,1.2-1,1.6-1.6
			c0.5-0.5,0.8-1.1,0.8-1.7c0-0.4-0.2-0.8-0.5-1.2 M103.1,7.5l5.6-5.4 M103.1,7.5c-0.3-0.2-0.5-0.4-0.8-0.7v0
			c-0.3-0.4-0.5-0.8-0.5-1.2c0-0.4,0.1-0.7,0.3-1.1c0.4-0.7,1.1-1.2,1.8-1.8l0,0v0l0.2-0.2 M103.1,7.5l1.1-5 M108.8,2.1L108.8,2.1
			 M108.8,2.1L108.8,2.1L108.8,2.1 M108.8,2.1c-0.6-0.6-1.3-0.8-2.1-0.7c-0.8,0.1-1.7,0.5-2.5,1.2v0l0.1,0.1 M108.7,2.1
			c-1.1-1.1-2.7-0.9-4.5,0.5 M104.2,2.6L104.2,2.6 M104.2,2.6L104.2,2.6 M104.6,3.1L104.6,3.1l-0.2,0.2v0c-0.8,0.7-1.4,1.2-1.7,1.7
			c-0.2,0.2-0.2,0.5-0.2,0.7c0,0.2,0.1,0.5,0.3,0.8c0.2,0.2,0.4,0.4,0.6,0.6c0.4,0.3,0.9,0.3,1.4,0.1c0.5-0.2,1.1-0.6,1.7-1.1v0
			c0.5-0.4,1.1-0.9,1.5-1.4c0.4-0.5,0.7-1,0.7-1.4c0-0.2-0.1-0.5-0.3-0.7c-0.1-0.1-0.2-0.2-0.3-0.3C107.2,1.7,105.9,2,104.6,3.1z
			 M106.5,6.1c1-0.8,2.2-1.9,2.2-2.9c0-0.3-0.1-0.5-0.3-0.8L106.5,6.1z"/>
		<path class="st1" d="M99.4,52.1c-0.3-1-1.7-2-4.9-2.1c-3.1-0.1-3.7,1-3.4,2.5c0.2,1.2,3,1.3,4.6,1.1C98.3,53.3,99.7,53,99.4,52.1z
			"/>
		<path class="st1" d="M98.2,51.1c-0.8-0.5-2.1-0.8-3.7-0.9c-1.5-0.1-2.5,0.2-2.9,0.7c-0.3,0.4-0.4,0.8-0.2,1.5
			c0,0.2,0.2,0.3,0.4,0.5c0.8,0.5,2.6,0.6,4,0.4c1.4-0.1,3.1-0.4,3.4-0.9c0.1-0.1,0.1-0.2,0-0.3C99,51.7,98.7,51.4,98.2,51.1z
			 M91.5,53.3c-0.3-0.2-0.6-0.5-0.6-0.8c-0.2-0.8-0.1-1.4,0.3-1.8c0.5-0.6,1.6-0.9,3.2-0.9c2.9,0.1,4.7,1,5.1,2.3
			c0.1,0.2,0.1,0.5,0,0.6c-0.3,0.5-1.4,0.8-3.7,1.1C94.4,53.9,92.5,53.9,91.5,53.3z"/>
		<defs>
			
				<filter id="Adobe_OpacityMaskFilter_00000078737599224766286030000005758136390748131754_" filterUnits="userSpaceOnUse" x="90.6" y="49.5" width="9.2" height="4.5">
				<feColorMatrix  type="matrix" values="1 0 0 0 0  0 1 0 0 0  0 0 1 0 0  0 0 0 1 0"/>
			</filter>
		</defs>
		
			<mask maskUnits="userSpaceOnUse" x="90.6" y="49.5" width="9.2" height="4.5" id="path-28-outside-2_1214_5698_00000067237348633486758650000009802454111144633507_">
			
				<rect x="88.6" y="45.5" style="fill:#FFFFFF;filter:url(#Adobe_OpacityMaskFilter_00000078737599224766286030000005758136390748131754_);" width="12.7" height="12.7"/>
			<path d="M98.2,51.1c-0.8-0.5-2.1-0.8-3.7-0.9c-1.5-0.1-2.5,0.2-2.9,0.7c-0.3,0.4-0.4,0.8-0.2,1.5c0,0.2,0.2,0.3,0.4,0.5
				c0.8,0.5,2.6,0.6,4,0.4c1.4-0.1,3.1-0.4,3.4-0.9c0.1-0.1,0.1-0.2,0-0.3C99,51.7,98.7,51.4,98.2,51.1z M91.5,53.3
				c-0.3-0.2-0.6-0.5-0.6-0.8c-0.2-0.8-0.1-1.4,0.3-1.8c0.5-0.6,1.6-0.9,3.2-0.9c2.9,0.1,4.7,1,5.1,2.3c0.1,0.2,0.1,0.5,0,0.6
				c-0.3,0.5-1.4,0.8-3.7,1.1C94.4,53.9,92.5,53.9,91.5,53.3z"/>
		</mask>
		<path class="st6" d="M94.5,50.2l0-0.2l0,0L94.5,50.2z M91.6,50.9l0.2,0.1l0,0L91.6,50.9z M91.3,52.4l-0.2,0l0,0L91.3,52.4z
			 M91.7,52.9l0.1-0.2v0L91.7,52.9z M95.7,53.3l0-0.2l0,0L95.7,53.3z M99.1,52.4l0.2,0.1v0L99.1,52.4z M99.2,52.1L99,52.2l0,0
			L99.2,52.1z M90.9,52.4l-0.2,0v0L90.9,52.4z M91.2,50.6l0.2,0.1l0,0L91.2,50.6z M94.5,49.8l0,0.2l0,0L94.5,49.8z M99.6,52.1
			l0.2-0.1v0L99.6,52.1z M99.5,52.7l0.2,0.1l0,0L99.5,52.7z M95.8,53.8l0-0.2l0,0L95.8,53.8z M98.1,51.2c-0.8-0.5-2-0.8-3.6-0.9
			l0-0.4c1.7,0.1,3,0.4,3.8,0.9L98.1,51.2z M94.5,50.4c-0.7,0-1.3,0-1.8,0.1c-0.5,0.1-0.8,0.3-1,0.5l-0.3-0.3
			c0.3-0.3,0.7-0.5,1.2-0.7c0.5-0.1,1.2-0.2,1.9-0.1L94.5,50.4z M91.7,51c-0.2,0.3-0.3,0.7-0.2,1.3l-0.4,0.1
			c-0.1-0.7-0.1-1.3,0.3-1.7L91.7,51z M91.5,52.4c0,0.1,0.1,0.2,0.3,0.3l-0.2,0.3c-0.2-0.2-0.4-0.4-0.5-0.6L91.5,52.4z M91.8,52.7
			c0.4,0.2,1,0.4,1.7,0.4c0.7,0.1,1.5,0.1,2.2,0l0,0.4c-0.7,0.1-1.5,0.1-2.3,0c-0.7-0.1-1.4-0.2-1.8-0.5L91.8,52.7z M95.7,53.1
			c0.7-0.1,1.5-0.2,2.1-0.3c0.3-0.1,0.6-0.1,0.8-0.2c0.2-0.1,0.3-0.2,0.4-0.3l0.3,0.2c-0.1,0.2-0.3,0.3-0.6,0.4
			c-0.2,0.1-0.5,0.2-0.9,0.3c-0.7,0.1-1.4,0.2-2.2,0.3L95.7,53.1z M99,52.3c0,0,0-0.1,0-0.1l0.4-0.1c0.1,0.2,0.1,0.3,0,0.5L99,52.3z
			 M99,52.2c-0.1-0.4-0.4-0.7-0.8-1l0.2-0.3c0.5,0.3,0.8,0.7,1,1.2L99,52.2z M91.4,53.4c-0.4-0.2-0.6-0.6-0.7-0.9l0.4-0.1
			c0.1,0.3,0.2,0.5,0.5,0.7L91.4,53.4z M90.7,52.5c-0.2-0.8-0.1-1.5,0.3-2l0.3,0.3c-0.3,0.4-0.4,0.9-0.3,1.7L90.7,52.5z M91.1,50.5
			c0.6-0.7,1.7-1,3.4-0.9l0,0.4c-1.7-0.1-2.6,0.2-3.1,0.8L91.1,50.5z M94.5,49.6c1.4,0.1,2.6,0.3,3.5,0.7c0.9,0.4,1.5,1,1.8,1.7
			l-0.4,0.1c-0.2-0.6-0.7-1.1-1.5-1.5c-0.8-0.4-2-0.6-3.4-0.7L94.5,49.6z M99.8,52c0.1,0.3,0.1,0.6-0.1,0.8l-0.3-0.2
			c0.1-0.1,0.1-0.3,0-0.5L99.8,52z M99.7,52.8c-0.2,0.3-0.6,0.6-1.2,0.7c-0.6,0.2-1.5,0.3-2.7,0.4l0-0.4c1.2-0.1,2-0.3,2.6-0.4
			c0.6-0.2,0.9-0.4,1-0.6L99.7,52.8z M95.8,54c-0.7,0.1-1.5,0.1-2.3,0c-0.8-0.1-1.5-0.2-2.1-0.6l0.2-0.3c0.4,0.3,1.1,0.4,1.9,0.5
			c0.8,0.1,1.6,0,2.3,0L95.8,54z"/>
		<path class="st7" d="M38,60.7c-0.8,0.3-1.6,1.8-2,2.5c0,1.4,0.7,1.4,2,1.1c1.3-0.4,1.6-1.1,2-2.5C40.3,60.3,39,60.3,38,60.7z"/>
	</g>
</g>
</svg>
