<?xml version="1.0" encoding="utf-8"?>
<!-- Generator: Adobe Illustrator 26.0.0, SVG Export Plug-In . SVG Version: 6.00 Build 0)  -->
<svg version="1.1" id="Layer_1" xmlns="http://www.w3.org/2000/svg" xmlns:xlink="http://www.w3.org/1999/xlink" x="0px" y="0px"
	 viewBox="0 0 101.4 107.3" style="enable-background:new 0 0 101.4 107.3;" xml:space="preserve">
<style type="text/css">
	.st0{clip-path:url(#SVGID_00000009589162230391012710000000514435820800907664_);}
	.st1{fill:#104EA5;}
	.st2{fill:#C4C4C4;filter:url(#Adobe_OpacityMaskFilter);}
	.st3{mask:url(#mask0_1306_3300_00000049222432387398535140000016591854485134784660_);}
	.st4{fill:#104EA5;stroke:#CC0000;stroke-dasharray:2,2;}
</style>
<g>
	<defs>
		<rect id="SVGID_1_" x="-12.5" y="2.9" width="125" height="100"/>
	</defs>
	<clipPath id="SVGID_00000124870550993237567870000014027743710443270307_">
		<use xlink:href="#SVGID_1_"  style="overflow:visible;"/>
	</clipPath>
	<g style="clip-path:url(#SVGID_00000124870550993237567870000014027743710443270307_);">
		<path class="st1" d="M23.6,88.4c-0.2,0-1.8,0-3.2-1.4c-1.3-1.3-1.9-3.2-1.9-5.8V46.3c0-0.4,0.3-0.7,0.7-0.7s0.7,0.3,0.7,0.7v34.8
			c0,2.2,0.5,3.9,1.5,4.9c1,1,2.2,1,2.3,1c0,0,0,0,0,0l9.5,0c0.4,0,0.7,0.3,0.7,0.7c0,0.4-0.3,0.7-0.7,0.7H23.6
			C23.6,88.4,23.6,88.4,23.6,88.4z"/>
		<path class="st1" d="M52.5,88.4h-8c-0.4,0-0.7-0.3-0.7-0.7c0-0.4,0.3-0.7,0.7-0.7h8c0.4,0,0.7,0.3,0.7,0.7
			C53.1,88.1,52.8,88.4,52.5,88.4z"/>
		<path class="st1" d="M19.1,31.1c-0.4,0-0.7-0.3-0.7-0.7V10.2c0-2.6,0.7-4.6,1.9-5.8c1.4-1.4,3.1-1.4,3.2-1.4l17.9,0
			c0.4,0,0.7,0.3,0.7,0.7c0,0.4-0.3,0.7-0.7,0.7H23.6c0,0,0,0,0,0c-0.1,0-1.3,0-2.3,1c-1,1-1.5,2.7-1.5,4.9v20.3
			C19.8,30.8,19.5,31.1,19.1,31.1z"/>
		<path class="st1" d="M59,27.9c-0.4,0-0.7-0.3-0.7-0.7v-17c0-2.2-0.5-3.9-1.5-4.9c-1-1-2.3-1-2.3-1H36.6c-0.4,0-0.7-0.3-0.7-0.7
			c0-0.4,0.3-0.7,0.7-0.7h17.9c0.1,0,1.8,0,3.2,1.4c1.3,1.3,1.9,3.2,1.9,5.8v17C59.6,27.6,59.3,27.9,59,27.9z"/>
		<path class="st1" d="M59,41.8c-0.4,0-0.7-0.3-0.7-0.7v-2.9c0-0.4,0.3-0.7,0.7-0.7c0.4,0,0.7,0.3,0.7,0.7v2.9
			C59.6,41.5,59.3,41.8,59,41.8z"/>
		<path class="st1" d="M59,56.6c-0.4,0-0.7-0.3-0.7-0.7v-6.4c0-0.4,0.3-0.7,0.7-0.7c0.4,0,0.7,0.3,0.7,0.7v6.4
			C59.6,56.3,59.3,56.6,59,56.6z"/>
		<path class="st1" d="M51.4,78.4H21c-0.2,0-0.4-0.2-0.4-0.4V13.4c0-0.2,0.2-0.4,0.4-0.4h36c0.2,0,0.4,0.2,0.4,0.4v49
			c0,0.2-0.2,0.4-0.4,0.4c-0.2,0-0.4-0.2-0.4-0.4V13.8H21.4v63.8h30c0.2,0,0.4,0.2,0.4,0.4C51.8,78.2,51.6,78.4,51.4,78.4z"/>
		<path class="st1" d="M2,126.1c-0.1,0-0.1,0-0.2,0c-0.3-0.1-0.4-0.4-0.3-0.7c0.1-0.3,9.4-25.4,6.6-35.3c-0.3-0.5-1.9-3.6-3-11.1
			c-0.4-2.5-0.9-4.9-1.3-7.3c-1.1-5.3-1.9-9.5-0.8-11.4C4.2,58,6.5,49.9,6.7,47.5c0-0.5,0-1.1,0-1.6c-0.1-1.8-0.1-3.6,2.2-5.2
			c0.7-0.5,1.8-2.1,2.8-3.8c2-3.1,4.3-6.6,6.8-6.8c0.9-0.1,1.8,0.3,2.6,1.1c0.1,0.1,0.1,0.2,0.1,0.4V42c0,0,0,0,0,0.1
			c-0.8,8-9.6,7.4-9.7,7.4c-0.3,0-0.5-0.3-0.5-0.6c0-0.3,0.3-0.5,0.6-0.5c0.3,0,7.9,0.5,8.6-6.4V31.7c-0.5-0.5-1-0.7-1.6-0.6
			c-2,0.2-4.2,3.6-6,6.4c-1.2,1.8-2.2,3.4-3.1,4.1c-1.8,1.3-1.8,2.6-1.7,4.3c0,0.5,0,1.1,0,1.7c-0.2,2.6-2.5,10.8-4,13.3
			c-0.9,1.5,0,6,1,10.7c0.5,2.4,1,4.9,1.4,7.4C7.3,86.6,9,89.6,9.1,89.6c0,0,0,0.1,0.1,0.1c3,10.1-6.2,34.9-6.6,36
			C2.4,126,2.2,126.1,2,126.1z"/>
		<path class="st1" d="M46.9,93.8c-0.1,0-0.3,0-0.4-0.1c-0.2-0.2-0.2-0.5,0-0.7l4.6-5c0.2-0.2,0.5-0.2,0.7,0c0.2,0.2,0.2,0.5,0,0.7
			l-4.6,5C47.2,93.7,47.1,93.8,46.9,93.8z"/>
		<path class="st1" d="M52.2,126.1c-0.1,0-0.2,0-0.3-0.1c-0.8-0.7-7.8-6.8-8.4-9.2c-0.5-2.3-5.2-14.2-6.2-16.4l-0.1-0.2
			c-0.7-1.4-0.9-1.9-1.2-3.4c-0.1-0.3-0.4-1.1-0.7-2.1c-1.7-4.6-3.2-9.3-1.5-11c0-0.1,1.2-1.2,3.2-1c2.8,0.2,5.8,2.5,8.9,6.8
			c0,0,0,0.1,0.1,0.1c0.1,0.2,2,4.5,2.5,6.9c1.2,2.3,3.3,5.7,4.2,5.9c0.3,0.1,0.4,0.4,0.4,0.7c-0.1,0.3-0.4,0.4-0.7,0.4
			c-1.7-0.5-4.4-5.5-4.9-6.5c0,0,0-0.1-0.1-0.1C47,94.5,45.2,90.5,45,90c-3.7-5-6.4-6.2-8.1-6.4c-1.6-0.1-2.4,0.7-2.5,0.7
			c-1.3,1.4,0.8,7.1,1.8,9.9c0.4,1.1,0.7,1.9,0.7,2.3c0.2,1.4,0.4,1.8,1.1,3.2l0.1,0.2c1,2.2,5.8,14.3,6.3,16.6c0.4,1.6,5,6,8,8.6
			c0.2,0.2,0.2,0.5,0.1,0.7C52.5,126,52.3,126.1,52.2,126.1z"/>
		<path class="st1" d="M53.2,109.3c-0.3,0-0.5-0.2-0.5-0.5c0-0.2-0.6-4.8,0-9.5c0.6-4.2-0.4-13.1-0.8-16.2c-0.3-2-1.8-8.9-4.6-16.6
			c-0.9-2.1-8.2-20.3-2.2-23c0.2-0.1,1.2-0.6,2.6-0.1c2.4,0.8,4.5,4.1,6.2,9.6c0.2,0.6,6.2,16.1,6.6,17.6l0,0.2
			c2.2,7.4,4.7,10.9,6.5,12.6c0.2,0.2,0.2,0.5,0,0.7c-0.2,0.2-0.5,0.2-0.7,0c-1.9-1.8-4.6-5.5-6.8-13.1l0-0.2
			c-0.4-1.5-6.5-17.4-6.6-17.5c-2.1-6.5-4.2-8.5-5.6-9c-1-0.4-1.7,0.1-1.7,0.1c0,0-0.1,0-0.1,0c-4.3,1.9,0.5,16.3,2.7,21.7
			c3.2,8.6,4.5,15.4,4.7,16.8c0,0.1,1.4,11.3,0.8,16.5c-0.6,4.6,0,9.2,0,9.2C53.8,109,53.6,109.3,53.2,109.3
			C53.3,109.3,53.2,109.3,53.2,109.3z"/>
		<path class="st1" d="M80.1,87.3c-0.3,0-0.5-0.2-0.5-0.5c-0.2-1.4-2.1-3.1-3.5-4.3c-0.6-0.6-1.2-1-1.5-1.4l-0.2-0.2
			c-1.2-1.4-4.7-5.6-7.3-6.6c-2.4-0.9-4.5,2.5-4.5,2.6c-0.2,0.2-0.5,0.3-0.7,0.2c-0.2-0.2-0.3-0.5-0.2-0.7c0.1-0.2,2.6-4.2,5.8-3
			c2.8,1,6.3,5.3,7.7,6.9l0.2,0.2c0.3,0.3,0.8,0.8,1.4,1.3c1.6,1.4,3.7,3.2,3.9,5C80.7,87,80.5,87.2,80.1,87.3
			C80.2,87.3,80.2,87.3,80.1,87.3z"/>
		<path class="st1" d="M98,125.2c-0.3,0-0.5-0.2-0.5-0.5L97,95.3c-0.1-7.6-7.9-7.7-8.2-7.7c-0.2,0-0.4-0.1-0.5-0.3
			c-1.5-3.5-4.7-3.1-4.8-3.1c0,0-0.1,0-0.1,0l-6.4-1.1c-0.3,0-0.5-0.3-0.4-0.6c0-0.3,0.3-0.5,0.6-0.4l6.4,1.1c0.6,0,4-0.1,5.7,3.5
			c1.7,0.1,8.8,1.1,8.9,8.7l0.4,29.4C98.5,125,98.3,125.2,98,125.2C98,125.2,98,125.2,98,125.2z"/>
		<path class="st1" d="M62.9,41c-0.3,0-0.5-0.2-0.5-0.5v-1.7c0-0.2,0.1-0.3,0.2-0.4c1.8-1.4,2.1-4.5,2.1-4.5
			c0.6-5.5-2.7-6.2-2.7-6.2c0,0-2-0.4-2.9,0.5c-0.4,0.4-0.6,0.9-0.5,1.7c0,0,0,0.1,0,0.1c-0.2,1.5-0.5,5.8,0.8,7.2
			c0.3,0.3,0.6,0.5,1.1,0.4c0.3,0,0.5,0.2,0.6,0.5c0,0.3-0.2,0.5-0.5,0.6c-0.8,0-1.4-0.2-1.9-0.8c-1.8-2-1.2-7.2-1.1-8
			c-0.1-1.1,0.2-1.9,0.9-2.5c1.4-1.2,3.7-0.8,3.8-0.7c0,0,4.2,0.8,3.6,7.3c0,0.1-0.3,3.3-2.3,5v1.4C63.5,40.8,63.2,41,62.9,41z"/>
		<path class="st1" d="M66.7,54c-0.2,0-0.3-0.1-0.4-0.2c-0.2-0.2-0.1-0.6,0.1-0.7c1.5-1.2,2.8-4.9,0.9-9.1c-1.6-3.8-6.2-2.4-6.4-2.3
			c-0.1,0-0.1,0-0.2,0c-0.9,0-1.6,0.3-2.1,0.8c-0.9,1.1-0.7,3-0.7,3c0,0.3-0.2,0.6-0.5,0.6c-0.3,0-0.6-0.2-0.6-0.5
			c0-0.1-0.3-2.4,1-3.8c0.7-0.8,1.6-1.1,2.8-1.2c2-0.6,6-0.7,7.6,2.9c1.9,4.3,0.8,8.7-1.2,10.4C67,53.9,66.8,54,66.7,54z"/>
		<path class="st1" d="M61.9,50.1c-1.3,0-2.6-0.2-3.6-1.1c-0.9-0.8-1.3-2-1.3-3.6c0-0.2,0.2-0.4,0.4-0.4c0.2,0,0.4,0.2,0.4,0.4
			c0,1.4,0.3,2.4,1.1,3c1.4,1.2,3.8,0.9,5.2,0.7l0.1,0c1.8-0.2,2.2-0.8,2.2-0.8c0.1-0.2,0.3-0.3,0.5-0.2c0.2,0.1,0.3,0.3,0.2,0.5
			c-0.1,0.2-0.5,1-2.8,1.3l-0.1,0C63.6,50,62.8,50.1,61.9,50.1z"/>
		<path class="st1" d="M61.6,75.8c-0.1,0-0.2,0-0.3-0.1c-0.2-0.2-0.3-0.5-0.2-0.7c0-0.1,3.6-5.8,7.2-10.2c3.3-4.1-0.9-9.5-0.9-9.5
			c-2.2-2.8-6.3,0.1-6.3,0.1c0,0-0.1,0-0.1,0c-1.2,0.5-1.9,1.3-2.1,2.1c-0.4,1.4,0.6,2.8,0.6,2.9c0,0.1,0.6,0.9,1.9,1.2
			c1.5,0.3,3.4-0.4,5.5-1.9c0.2-0.2,0.6-0.1,0.7,0.1c0.2,0.2,0.1,0.6-0.1,0.7c-2.4,1.7-4.6,2.4-6.4,2c-1.8-0.3-2.6-1.6-2.6-1.6
			c0-0.1-1.2-1.8-0.7-3.7c0.3-1.2,1.2-2.1,2.7-2.8c1.7-1.2,5.5-2.7,7.7,0.1c0,0.1,4.8,6.1,0.9,10.8C65.6,69.9,62,75.5,62,75.6
			C61.9,75.7,61.7,75.8,61.6,75.8z"/>
		<path class="st1" d="M59,67.6c-0.4,0-0.7-0.3-0.7-0.7v-5.8c0-0.4,0.3-0.7,0.7-0.7c0.4,0,0.7,0.3,0.7,0.7v5.8
			C59.6,67.3,59.3,67.6,59,67.6z"/>
		<path class="st1" d="M19.1,61.5c-0.2,0-0.4-0.2-0.4-0.4c-0.1-0.3-0.8-2.3-1.5-4.1c0-0.1,0-0.1,0-0.2c0,0,0.5-5,0.1-9.2
			c0-0.2,0.1-0.4,0.4-0.4c0.2,0,0.4,0.1,0.4,0.4c0.4,4,0,8.6,0,9.3c1.5,4,1.5,4.2,1.5,4.3C19.5,61.3,19.4,61.5,19.1,61.5z"/>
		<path class="st1" d="M14.1,37.4c-0.8,0-1.5-0.7-1.6-0.7c-0.1,0-0.1-0.1,0-0.2c0-0.1,0.1-0.1,0.2,0c0,0,0.8,0.7,1.6,0.6
			c0.3-0.1,0.5-0.2,0.7-0.6c0.1-0.2,0.2-0.4,0.4-0.7c0.8-1.4,2-3.5,1.5-4.3c0-0.1,0-0.1,0-0.2c0.1,0,0.1,0,0.2,0
			c0.6,0.9-0.6,3-1.5,4.6c-0.1,0.3-0.3,0.5-0.4,0.7c-0.2,0.4-0.5,0.6-0.9,0.7C14.2,37.4,14.2,37.4,14.1,37.4z"/>
		<path class="st1" d="M12.6,60.7c-0.1,0-0.1,0-0.1-0.1c0-0.1,0-0.1,0.1-0.2c0,0,3.5-1.2,5-3.7c0-0.1,0.1-0.1,0.2,0
			c0.1,0,0.1,0.1,0,0.2C16.3,59.4,12.8,60.7,12.6,60.7C12.7,60.7,12.6,60.7,12.6,60.7z"/>
		<path class="st1" d="M35.1,91.4C35.1,91.4,35.1,91.4,35.1,91.4C35,91.4,35,91.3,35,91.2c1.1-1.3,3.3-2,3.9-2.2
			c-0.2-0.5-0.3-1-0.4-1.4c-0.6-2.2-0.8-2.9-2.4-3c-1.9-0.1-2.4,1.4-2.4,1.4c0,0.1-0.1,0.1-0.2,0.1c-0.1,0-0.1-0.1-0.1-0.2
			c0,0,0.5-1.7,2.7-1.6c1.8,0.1,2.1,1,2.7,3.2c0.1,0.5,0.3,1,0.4,1.6c0,0,0,0.1,0,0.1c0,0,0,0.1-0.1,0.1c0,0-2.7,0.7-3.8,2.2
			C35.2,91.4,35.2,91.4,35.1,91.4z"/>
		<path class="st1" d="M27.4,90.3C27.4,90.3,27.4,90.3,27.4,90.3c-0.1-0.1-0.2-0.1-0.1-0.2c0,0,0.6-1,1-1.9c0-0.1,0.1-0.1,0.2-0.1
			c0.1,0,0.1,0.1,0.1,0.2c-0.4,1-1,1.9-1,2C27.5,90.3,27.5,90.3,27.4,90.3z"/>
		<path class="st1" d="M46.3,49.9c-0.2,0-0.4-0.1-0.5-0.2c-0.6-0.6-0.6-2.4-0.5-3.7c0.2-1.7,2.4-1.6,2.5-1.6c0.1,0,0.1,0.1,0.1,0.1
			c0,0.1-0.1,0.1-0.1,0.1c-0.1,0-2-0.1-2.2,1.4c-0.2,1.4-0.1,3,0.4,3.5c0.1,0.1,0.2,0.2,0.4,0.2c0.4,0,1.2-0.4,2-0.7
			c1.2-0.5,2.4-1.1,3-0.9c0.1,0,0.1,0.1,0.1,0.2c0,0.1-0.1,0.1-0.2,0.1c-0.6-0.1-1.8,0.4-2.9,0.9C47.6,49.5,46.8,49.9,46.3,49.9
			C46.3,49.9,46.3,49.9,46.3,49.9z"/>
		<path class="st1" d="M59.6,42.1c0.6,0.6,2.3,2.2,2.6,3.7l2.2-0.4c0-0.5-0.3-3-2.3-3.6L59.6,42.1z M62.1,46.1
			C62,46.1,62,46.1,62.1,46.1C62,46,61.9,46,61.9,46c-0.1-1.7-2.7-3.8-2.7-3.8c0,0-0.1-0.1,0-0.1c0-0.1,0.1-0.1,0.1-0.1l2.8-0.4
			c0,0,0,0,0.1,0c2.5,0.7,2.5,3.9,2.5,4c0,0.1,0,0.1-0.1,0.1L62.1,46.1C62.1,46.1,62.1,46.1,62.1,46.1z"/>
		<path class="st1" d="M62.1,58.9C62.1,58.9,62,58.9,62.1,58.9c-0.1,0-0.1-0.1-0.1-0.1c-0.2-1.3-2-2.7-2-2.7c-0.1,0-0.1-0.1,0-0.2
			c0-0.1,0.1-0.1,0.2,0c0.1,0.1,1.7,1.4,2.1,2.7l1.4-0.8c0.1-0.4,0.2-2.4-1.8-3.2c-0.1,0-0.1-0.1-0.1-0.2c0-0.1,0.1-0.1,0.2-0.1
			c2.4,0.9,1.9,3.5,1.9,3.6c0,0,0,0.1-0.1,0.1L62.1,58.9C62.1,58.9,62.1,58.9,62.1,58.9z"/>
		<defs>
			<filter id="Adobe_OpacityMaskFilter" filterUnits="userSpaceOnUse" x="23.5" y="26.9" width="31" height="31">
				<feColorMatrix  type="matrix" values="1 0 0 0 0  0 1 0 0 0  0 0 1 0 0  0 0 0 1 0"/>
			</filter>
		</defs>
		
			<mask maskUnits="userSpaceOnUse" x="23.5" y="26.9" width="31" height="31" id="mask0_1306_3300_00000049222432387398535140000016591854485134784660_">
			<path class="st2" d="M45,59.4l-1-4.5l8.5-5.5l3,7v-31H23v34H45z"/>
		</mask>
		<g class="st3">
			<path class="st4" d="M27.5,27.4h23c1.9,0,3.5,1.6,3.5,3.5v23c0,1.9-1.6,3.5-3.5,3.5h-23c-1.9,0-3.5-1.6-3.5-3.5v-23
				C24,29,25.6,27.4,27.5,27.4z"/>
		</g>
	</g>
</g>
</svg>
