<svg xmlns="http://www.w3.org/2000/svg" viewBox="0 0 499.95 492.74"><defs><style>.cls-1{isolation:isolate;}.cls-2{fill:#036;mix-blend-mode:multiply;}.cls-3{fill:#ffcdcc;}.cls-4{fill:#ffb1b0;}.cls-5{fill:#f47676;}.cls-6{fill:#440a04;}.cls-7{fill:#0c0c23;}.cls-8{fill:#510e05;}.cls-9{fill:#fff;}.cls-10,.cls-18{fill:#ccf;}.cls-10{opacity:0.5;}.cls-11{fill:#7972d9;}.cls-12{fill:#ffa943;}.cls-13{fill:#e28e33;}.cls-14{fill:#242454;}.cls-15{fill:#13132d;}.cls-16{fill:#1c1c47;}.cls-17{fill:#ed902b;}</style></defs><g class="cls-1"><g id="BACKGROUND"><path class="cls-2" d="M111.3,441.63C21.67,448.46-42.33,297.36,36.91,255.54s103.66-51.75,107.72-125.76S238.8-15.36,300.91,14.35s43,97.3,118.53,112c87.08,17,118.28,236.15,23.67,276C350.93,441.29,380.68,504,297,498,216.53,492.12,248.8,431.15,111.3,441.63Z" transform="translate(-0.99 -7.43)"/></g><g id="OBJECTS"><path class="cls-3" d="M78,165.93s11.23,38.49,5.21,52.92-36.08-1.2-36.48,22.86,90.61-6.42,90.61-6.42l-12-12-2-34.88Z" transform="translate(-0.99 -7.43)"/><path class="cls-4" d="M92.53,186.09c4.16,6.48,8.69,13.55,14.91,18.27A41.35,41.35,0,0,0,124.69,212l-1.36-23.59L83.16,168.47A117.51,117.51,0,0,0,92.53,186.09Z" transform="translate(-0.99 -7.43)"/><path class="cls-5" d="M81.24,201.61l46.1,5.22L129,221.26s30.47-5.21,31.67,4S174.38,331.62,143.11,334,37.54,255.74,44.35,237.3,73.22,225.67,78,220.86,81.24,201.61,81.24,201.61Z" transform="translate(-0.99 -7.43)"/><path class="cls-6" d="M117.32,76.13s30.87-12.83,52.12,15.23,4.81,64.55,4.81,64.55,8-28.87-12.43-49.31v-6l8,11.23s10,30.47-6,46.1-58.94-42.49-58.94-42.49Z" transform="translate(-0.99 -7.43)"/><path class="cls-3" d="M109.3,87.75s58.14-10.09,58.14,58.94c0,67.35-54.53,65.75-81,29.67C58.09,137.68,65.2,92.57,109.3,87.75Z" transform="translate(-0.99 -7.43)"/><path class="cls-3" d="M73.62,148.29S60,130.65,56,150.7s16.84,30.47,24.86,17.64S73.62,148.29,73.62,148.29Z" transform="translate(-0.99 -7.43)"/><path class="cls-5" d="M140.37,143c-.09.5-.14,1-.21,1.51L140,146c-.06.49-.09,1-.12,1.49a14.89,14.89,0,0,0-.09,1.49c0,.49,0,1,0,1.48s0,1,0,1.47,0,1,.08,1.46l.13,1.45.23,1.42a13.41,13.41,0,0,0,.3,1.4l.16.69c.07.23.15.45.23.67.17.44.29.9.47,1.33l.59,1.28a12.19,12.19,0,0,0,.71,1.2c.13.2.24.4.36.6s.29.37.43.56l.87,1.1.9,1.13-1.17.55c-.81.38-1.65.71-2.47,1.06s-1.66.69-2.5,1-1.69.63-2.53,1-1.72.58-2.59.84c.73-.54,1.48-1.06,2.23-1.56s1.51-1,2.28-1.45,1.53-.95,2.31-1.4,1.54-.91,2.34-1.33l-.28,1.67-1.1-1.18a7.29,7.29,0,0,1-1-1.28,15.13,15.13,0,0,1-.86-1.38l-.71-1.47a11.43,11.43,0,0,1-.54-1.52c-.08-.26-.17-.51-.24-.77l-.17-.79c-.09-.52-.25-1-.29-1.57l-.14-1.59,0-1.58c0-.52.06-1,.09-1.57s.11-1,.19-1.55a11.14,11.14,0,0,1,.28-1.53,21.54,21.54,0,0,1,.83-3A17.8,17.8,0,0,1,140.37,143Z" transform="translate(-0.99 -7.43)"/><path class="cls-5" d="M75.22,169.54a13.35,13.35,0,0,1-2.31-1.27,6.22,6.22,0,0,1-2-2,3,3,0,0,1-.29-.76,2.1,2.1,0,0,1,0-.9,2.16,2.16,0,0,1,.37-.83,3,3,0,0,1,.56-.61,5.71,5.71,0,0,1,1.28-.81,11.14,11.14,0,0,1,1.32-.5L73.59,163c-.55-1.31-1.17-2.64-1.79-3.94s-1.31-2.57-2-3.8a28.81,28.81,0,0,0-2.36-3.49,12,12,0,0,0-1.36-1.47,5.71,5.71,0,0,0-1.52-1A2.79,2.79,0,0,0,63,149a1.7,1.7,0,0,0-.35.07c-.08,0-.2.09-.3.12a1.91,1.91,0,0,0-.55.45,4.17,4.17,0,0,0-.77,1.58,11.6,11.6,0,0,0-.34,2,28.1,28.1,0,0,0,0,4.3c.11,1.45.26,2.92.47,4.38a26.57,26.57,0,0,1-1.41-4.23,22.87,22.87,0,0,1-.7-4.48,12,12,0,0,1,.15-2.37,6,6,0,0,1,1-2.44,4.05,4.05,0,0,1,1.09-1,4.12,4.12,0,0,1,.7-.33,4.61,4.61,0,0,1,3.47.11,7.76,7.76,0,0,1,2.16,1.38,13.51,13.51,0,0,1,1.67,1.72,25.1,25.1,0,0,1,2.54,3.85,37,37,0,0,1,1.93,4.08,42.57,42.57,0,0,1,1.51,4.24l.28.94-.89.2c-.4.09-.78.19-1.16.31a4.51,4.51,0,0,0-1,.45,1.9,1.9,0,0,0-.37.29.77.77,0,0,0-.21.32,1.22,1.22,0,0,0,0,.88,6,6,0,0,0,1.36,2A20,20,0,0,0,75.22,169.54Z" transform="translate(-0.99 -7.43)"/><path class="cls-6" d="M143.51,134.47a6.9,6.9,0,0,1,.32-1.43,11.14,11.14,0,0,1,1.75-3.34,12.58,12.58,0,0,1,4.19-3.57,13.39,13.39,0,0,1,1.49-.65,11.71,11.71,0,0,1,5.16-.7,12.6,12.6,0,0,1,3.43.78,13.63,13.63,0,0,1,2.87,1.59,14.81,14.81,0,0,1,2.16,2,14.09,14.09,0,0,1,1.46,2.07c.18.34.37.65.52,1s.28.63.38.93a10.35,10.35,0,0,1,.49,1.55,14.13,14.13,0,0,1,.24,1.43s-.54-.16-1.35-.49l-3.13-1.33c-.6-.29-1.26-.51-1.89-.79s-1.31-.49-2-.7c-.33-.11-.66-.18-1-.29s-.65-.13-1-.23a15.48,15.48,0,0,0-1.88-.27,12.92,12.92,0,0,0-1.87,0,19.36,19.36,0,0,0-2,.19,31.24,31.24,0,0,0-3.93.92c-1.25.36-2.37.74-3.2,1Z" transform="translate(-0.99 -7.43)"/><path class="cls-6" d="M132.81,136.94l-1.66-.84c-1-.52-2.47-1.25-4.13-2a47.89,47.89,0,0,0-5.51-2.21c-.49-.17-1-.29-1.48-.45s-1-.25-1.5-.34a20.52,20.52,0,0,0-3-.37,18.36,18.36,0,0,0-3,.1c-.49,0-1,.16-1.47.22s-1,.25-1.46.33c-1,.27-1.91.56-2.83.92a14.41,14.41,0,0,0-1.34.54,13.68,13.68,0,0,0-1.28.55c-.83.38-1.62.73-2.3,1.09s-1.34.63-1.85.9c-1,.52-1.71.79-1.71.79s.2-.67.66-1.79a14.67,14.67,0,0,1,1-1.93c.21-.36.44-.74.71-1.14s.58-.77.9-1.19a12.1,12.1,0,0,1,1.09-1.22,13.78,13.78,0,0,1,1.29-1.23c.48-.39,1-.79,1.52-1.16a17.44,17.44,0,0,1,1.74-1,16.2,16.2,0,0,1,4.09-1.51,17.43,17.43,0,0,1,4.57-.43,18.22,18.22,0,0,1,4.47.83,17.87,17.87,0,0,1,3.88,1.77,20,20,0,0,1,5.42,4.76,18.71,18.71,0,0,1,2.56,4.27A11.42,11.42,0,0,1,132.81,136.94Z" transform="translate(-0.99 -7.43)"/><path class="cls-7" d="M154.36,150.13c-.1,3.05.87,5.55,2.16,5.59s2.4-2.4,2.5-5.44-.88-5.55-2.16-5.59S154.45,147.09,154.36,150.13Z" transform="translate(-0.99 -7.43)"/><path class="cls-5" d="M112.7,177.89a18.62,18.62,0,0,1,4.28-1.64c.67-.17,1.4-.36,2.18-.48a23.08,23.08,0,0,1,2.47-.32c.87-.07,1.77-.09,2.68-.1s1.85.07,2.77.21a22.11,22.11,0,0,1,2.74.52l1.32.36c.43.14.85.32,1.26.47s.81.3,1.2.47l1.09.59a11.19,11.19,0,0,1,1.92,1.19c.56.41,1.07.8,1.5,1.15s.74.76,1,1.05c.55.59.84.94.84.94s-.43-.19-1.13-.56c-.35-.18-.78-.39-1.24-.66s-1.07-.44-1.67-.72a18.49,18.49,0,0,0-2-.75l-1.07-.38c-.39-.09-.77-.2-1.16-.31s-.78-.23-1.18-.32l-1.24-.24c-.82-.2-1.68-.29-2.53-.41s-1.72-.16-2.57-.27-1.69-.12-2.51-.12-1.61,0-2.37,0l-2.14.06c-1.33.06-2.45.12-3.24.18Z" transform="translate(-0.99 -7.43)"/><path class="cls-7" d="M113.43,144.5c1,.23,2.06.51,3.1.77l3.06.86c2,.59,4,1.24,6.07,1.9l2.41.78-2.53.19c-2.08.15-4.17.31-6.26.38s-4.18.16-6.28.12c2.07-.37,4.14-.64,6.22-.88s4.16-.44,6.24-.62l-.12,1c-2-.67-4-1.35-6-2.1l-3-1.14C115.39,145.32,114.4,144.94,113.43,144.5Z" transform="translate(-0.99 -7.43)"/><path class="cls-8" d="M93.27,68.51s37.68-8,45.3,22.45c6.65,26.59-14.83,52.92-31.67,54.13,0,0,16.43-10.43,19.24-26.87,0,0-11.63,26.87-46.1,29.67,0,0,4.41,10.83-.41,18.84,0,0-4-25.25-17.23-25.65,0,0-8.42.8-6.82,18,0,0-14-17.64-12-39.69S62,69.31,93.27,68.51Z" transform="translate(-0.99 -7.43)"/><path class="cls-9" d="M131.75,219.78s36.58-12.11,46.58,22.55,28,71.34,28,71.34,73.34,14.66,87.34,20c0,0-11.34,17.33-20,20.66s-76-6-103.34-19.33S131.75,219.78,131.75,219.78Z" transform="translate(-0.99 -7.43)"/><path class="cls-10" d="M206.33,313.67a541.59,541.59,0,0,1-24.24-59.28c-3,5.5-5.78,11.15-8.56,16.8-6.55,13.33-13.14,26.64-20.77,39.4a.44.44,0,0,1-.23.2c4.95,11.7,10.86,20.82,17.8,24.21,27.34,13.33,94.67,22.67,103.34,19.33s20-20.66,20-20.66C279.67,328.33,206.33,313.67,206.33,313.67Z" transform="translate(-0.99 -7.43)"/><path class="cls-9" d="M39.94,238.46s2.41-13.91,34.48-17.89l67.91,59.76-10.58-60.55s24.43-6.45,33.25,3.89S209,410.33,207.93,500H26.6s34-110.69,50.4-156C77,344,27.11,273.84,39.94,238.46Z" transform="translate(-0.99 -7.43)"/><path class="cls-10" d="M188.58,326.9l-24.91-33.23L99,276.33l-51.32,16.8S85,347,111,355.67c18.37,6.12,59.4-.71,81.49-5.85C191.2,340.25,189.92,336.15,188.58,326.9Z" transform="translate(-0.99 -7.43)"/><path class="cls-11" d="M175,254.33s.52,2.43,1.44,6.69,2.22,10.32,3.69,17.64,3.21,15.83,5,25c.88,4.57,1.79,9.3,2.66,14.12s1.8,9.7,2.7,14.59,1.7,9.79,2.53,14.62,1.63,9.57,2.41,14.17,1.4,9.06,2.05,13.28,1.24,8.22,1.8,11.9.92,7.09,1.3,10.1.69,5.63,1,7.79c.53,4.31.83,6.78.83,6.78s-.36-2.46-1-6.76c-.32-2.15-.7-4.77-1.15-7.76s-.9-6.38-1.5-10.06c-1.21-7.36-2.63-15.94-4.15-25.13l-2.47-14.15c-.85-4.82-1.67-9.72-2.59-14.61s-1.77-9.78-2.63-14.59-1.74-9.55-2.61-14.13c-1.7-9.17-3.29-17.72-4.65-25.05Z" transform="translate(-0.99 -7.43)"/><path class="cls-11" d="M143,222.33l9.58,23.91.13.32-.35,0-12,1.4.11-.64,11.36,5.27.29.13-.06.32-5.94,32-.11.62-.57-.29c-15.14-7.73-30.21-15.57-45.32-23.36l-.44-.23.28-.41,6-8.65.22.62-21.29-6.13-.11,0,0-.08L70.33,224.33l14.9,22.52-.16-.11,21.37,5.87.55.15-.32.47-6,8.69-.16-.64c15.12,7.76,30.27,15.47,45.35,23.3l-.68.33,6.06-32,.23.45-11.3-5.4-1.08-.51,1.19-.13,12-1.26-.21.36Z" transform="translate(-0.99 -7.43)"/><path class="cls-3" d="M327.15,377.06q32,.79,63.91,1.83,28.2.9,56.42,1.88a225.27,225.27,0,0,0-15.24-28.24s48.54-102,19.18-125.89c-19.71-16-45,9.78-48.57-23.93s-7.11-35.91-2-49.13S355,179.33,355,179.33s14.12,46.5.82,45.55-31.88-1.94-33.14,28.18c-1.28,30.58,24.2,93,24.2,93A293.4,293.4,0,0,0,327.15,377.06Z" transform="translate(-0.99 -7.43)"/><path class="cls-4" d="M330.77,276.25c-1.78.71-3.56,1.38-5.34,2.05,2.08,10.08,5.07,20.77,8.17,30.63,2.73-2.46,18.12-26.12,17.62-43.12-4.57.88-4.76,2.86-8.85,5A113,113,0,0,1,330.77,276.25Z" transform="translate(-0.99 -7.43)"/><path class="cls-4" d="M364,211.39c5.89-4.06,12.18-9.18,16.26-15.11,8-11.57,6.36-25.62,6.05-39-13.53,8.4-31.37,22-31.37,22s6.14,20.21,6.51,33.71C362.33,212.51,363.19,212,364,211.39Z" transform="translate(-0.99 -7.43)"/><path class="cls-4" d="M446.54,279.68s-6.14,52.81-14.3,72.85c0,0,22.77-47.87,27.68-85.7C455.46,272.79,450.83,277.64,446.54,279.68Z" transform="translate(-0.99 -7.43)"/><path class="cls-4" d="M403.22,250.72A83.81,83.81,0,0,1,395,312.46s28.61-16.54,8.16-61.52C402.57,251.24,403.86,250.42,403.22,250.72Z" transform="translate(-0.99 -7.43)"/><path class="cls-3" d="M359.72,225.32s-25.86-10.66-42,9.5C303.73,252.32,271,327,271,327s-19.73,18.37-1.33,24.67c37.69,12.91,69.23-75.14,87.55-79.86S359.72,225.32,359.72,225.32Z" transform="translate(-0.99 -7.43)"/><path class="cls-4" d="M327.14,240.2s-1.06-5.73,4-4.92c0,0,3.39-3.26,5.75.77s3.68,5.28-.24,7.43-3.51,4-8.18,1.46S327.14,240.2,327.14,240.2Z" transform="translate(-0.99 -7.43)"/><path class="cls-6" d="M328.67,239.64s-.64-3.47,2.41-3c0,0,2.05-2,3.48.47s2.23,3.2-.14,4.5-2.13,2.45-5,.88S328.67,239.64,328.67,239.64Z" transform="translate(-0.99 -7.43)"/><path class="cls-8" d="M333.34,238.81s1.36,1.6-.36,2.25a1.26,1.26,0,0,1-1.94.8c-1.46-.84-2.1-1-1.26-2.37s.37-1.9,2.3-1.93S333.34,238.81,333.34,238.81Z" transform="translate(-0.99 -7.43)"/><path class="cls-3" d="M288.33,312.33S234.44,341,200.64,360.19c-29.3-4-14.63,2-7.81,4.48-23.24,13.45-34.8,21.55-7.16,10.33,0,0-44.67,26,3.33,6,0,0-40,22,6.67,2.67,0,0-38,23.33,7.33,2,0,0,81.33-22.67,96-42S288.33,312.33,288.33,312.33Z" transform="translate(-0.99 -7.43)"/><path class="cls-4" d="M285.5,354.5c10.5,3,36.5-17.17,29.5-26.17-11.42-14.68-21.5-21.83-4,2.67,0,0-31-30.5-5.5,4,0,0-33-34-3.5,5.5,0,0-34-26.17-5,2.5A35.74,35.74,0,0,1,285.5,354.5Z" transform="translate(-0.99 -7.43)"/><path class="cls-12" d="M473.55,500.18c.14-43.71-6.09-95.88-31-132.85-49.28,9.71-103,4.53-110.82,2.25-13,20.61-26.65,46.4-33.23,78.32A486.77,486.77,0,0,0,291,500.18Z" transform="translate(-0.99 -7.43)"/><path class="cls-13" d="M472.33,462.33S435,485,385,489l-1.33,11h89.88A294.9,294.9,0,0,0,472.33,462.33Z" transform="translate(-0.99 -7.43)"/><path class="cls-14" d="M340.11,376.65c-8.94-1.53-14.39-2.86-14.39-2.86l-10.49,19.49a98.55,98.55,0,0,0,15.56,4.49C333.39,390.55,337.14,383.73,340.11,376.65Z" transform="translate(-0.99 -7.43)"/><path class="cls-14" d="M391.28,381.13a299,299,0,0,1-42.36-3.1c-2.88,7.24-6.25,14.29-9.27,21.47a283.59,283.59,0,0,0,45.56,3.78h3.69C389.86,395.92,390.77,388.54,391.28,381.13Z" transform="translate(-0.99 -7.43)"/><path class="cls-14" d="M430.9,377.27A182,182,0,0,1,400.21,381v22.12a204.54,204.54,0,0,0,37.23-4.4C435.86,391.42,432.39,384.55,430.9,377.27Z" transform="translate(-0.99 -7.43)"/><path class="cls-14" d="M438.53,381.5a61.54,61.54,0,0,1,4.17,9.9q.94,2.7,1.74,5.46c9.79-2.85,13.75-5.58,13.75-5.58-2.5-8.49-10-19-10-19a118.27,118.27,0,0,1-12.66,3.89C436.45,378,437.53,379.73,438.53,381.5Z" transform="translate(-0.99 -7.43)"/><path class="cls-15" d="M407.68,88.45S394.78,57,424,53.88s35.56,57.13,2.15,42.29c0,0,23.16,8.14,25.19-14.46,1.38-15.35-6.56-22.13-6.56-22.13s13.08,2.24,12.75,24.06c-.36,23.74-17.63,30.67-36.5,17.68s31.36,28.23,39.77-18.1c0,0,1.08,36.92-34,25.31C387.84,95.64,407.68,88.45,407.68,88.45Z" transform="translate(-0.99 -7.43)"/><path class="cls-12" d="M418.49,100.67c-5.12,5.32-13.78,4.87-19.36-1s-5.94-14.94-.82-20.26,13.79-4.87,19.36,1S423.61,95.35,418.49,100.67Z" transform="translate(-0.99 -7.43)"/><path class="cls-15" d="M349.28,86.27s-14.36-13-32.89-1.47-45,82.43,9.26,121c0,0-25.09-21.59-23.45-54.32,0,0-.57,32.2,28.25,38.31S349.28,86.27,349.28,86.27Z" transform="translate(-0.99 -7.43)"/><path class="cls-3" d="M359.31,89.65s-50.38-5.84-47.5,58.38,54.31,80.81,76.65,22.42C411.39,110.51,397.49,90.4,359.31,89.65Z" transform="translate(-0.99 -7.43)"/><path class="cls-3" d="M386.1,150s7.53-20.41,18.27-12.42-4.75,42.86-20,34C374.08,165.68,386.1,150,386.1,150Z" transform="translate(-0.99 -7.43)"/><path class="cls-16" d="M366,69.94s-29.73,0-33.13,26.84,19.39,44,40.56,47.72c0,0-13.92-8.32-20.35-19.55,0,0,13.85,18.43,27.36,19.53,0,0-8.74,33.32-1.26,49.84,0,0,5.82-56.73,18.55-56.21s8.71,34-9.4,34.18a51,51,0,0,0,4.31,11.19l7.95.71s30.59-33.28,28.63-57.48S416.55,65.09,366,69.94Z" transform="translate(-0.99 -7.43)"/><path class="cls-7" d="M309.77,142.24a6,6,0,0,1,.37-1.29,9.83,9.83,0,0,1,1.88-3,10,10,0,0,1,4.5-2.86,9.74,9.74,0,0,1,3.12-.45,12,12,0,0,1,3.16.48c.51.16,1,.34,1.48.53s.93.43,1.36.68a16.83,16.83,0,0,1,2.38,1.62,18.31,18.31,0,0,1,1.89,1.82,17.14,17.14,0,0,1,1.45,1.81,16.64,16.64,0,0,1,1,1.64,11.88,11.88,0,0,1,.67,1.34,12,12,0,0,1,.5,1.23s-.45-.21-1.15-.63l-1.26-.74c-.49-.28-1-.63-1.58-1s-1.16-.73-1.81-1.09-1.31-.75-2-1.14l-1-.53c-.35-.18-.71-.32-1.06-.5a20.56,20.56,0,0,0-2.14-.79,12.91,12.91,0,0,0-2.12-.44,10.15,10.15,0,0,0-2.06,0,11.64,11.64,0,0,0-3.78,1.06,21.38,21.38,0,0,0-2.76,1.54C310.16,141.94,309.77,142.24,309.77,142.24Z" transform="translate(-0.99 -7.43)"/><path class="cls-7" d="M346.73,145.11a8.14,8.14,0,0,1,.7-1.43,15.91,15.91,0,0,1,7.8-6.69,14.13,14.13,0,0,1,3.51-.9,14.35,14.35,0,0,1,7.42,1,11.68,11.68,0,0,1,1.63.79,11.48,11.48,0,0,1,1.48.91,18.67,18.67,0,0,1,2.5,2.06,19.67,19.67,0,0,1,1.87,2.13,15.84,15.84,0,0,1,1.33,2,10.87,10.87,0,0,1,.87,1.59c.44.91.64,1.45.64,1.45s-.51-.3-1.31-.87c-.4-.3-.89-.63-1.45-1s-1.17-.81-1.85-1.24-1.41-.89-2.17-1.36-1.58-.9-2.43-1.29a20.07,20.07,0,0,0-2.63-1.06,15.37,15.37,0,0,0-2.74-.65,16.09,16.09,0,0,0-2.77-.15,16.34,16.34,0,0,0-2.72.37,22.21,22.21,0,0,0-4.88,1.7,34.19,34.19,0,0,0-3.47,1.84C347.22,144.8,346.73,145.11,346.73,145.11Z" transform="translate(-0.99 -7.43)"/><path class="cls-5" d="M335.56,150a18.57,18.57,0,0,1,.87,3,26.82,26.82,0,0,1,.48,3.09c.06.52.07,1,.09,1.57s0,1.05,0,1.57-.05,1.06-.1,1.59-.13,1.06-.22,1.59a16.14,16.14,0,0,1-2.32,6.11,11.84,11.84,0,0,1-1,1.34,12.48,12.48,0,0,1-1.22,1.19,10.28,10.28,0,0,1-1.4,1,10.61,10.61,0,0,1-1.51.75l.18-1.83,1.62,1.39,1.59,1.43c1,1,2.09,2,3.05,3-1.33-.59-2.58-1.28-3.84-2L330,173.76l-1.82-1.11-1.33-.82,1.51-1c.38-.26.78-.48,1.13-.77a9.37,9.37,0,0,0,1-.87,10.81,10.81,0,0,0,.9-1,8.76,8.76,0,0,0,.77-1.11,17.7,17.7,0,0,0,2.08-5.19c.23-.94.42-1.89.58-2.86s.27-1.95.37-2.94C335.37,154.08,335.48,152.06,335.56,150Z" transform="translate(-0.99 -7.43)"/><path class="cls-5" d="M393.74,167.57a7.41,7.41,0,0,0,.3-1.12,7,7,0,0,0,.14-1.11,3.79,3.79,0,0,0-.07-1.07,1.61,1.61,0,0,0-.13-.49,1.54,1.54,0,0,0-.2-.43,1.72,1.72,0,0,0-.28-.37c-.12-.1-.19-.23-.34-.29l-.39-.24-.45-.17a7.6,7.6,0,0,0-1-.22l-1,0-1-.05.12-1c.09-.81.21-1.58.33-2.37s.25-1.57.42-2.35.33-1.55.52-2.33.38-1.55.62-2.31a34.76,34.76,0,0,1,1.73-4.57,14.41,14.41,0,0,1,1.31-2.21,6.83,6.83,0,0,1,2.1-2,3.67,3.67,0,0,1,1.69-.49,3.73,3.73,0,0,1,.75,0l.46.09.4.13a4.69,4.69,0,0,1,2.34,2,7.49,7.49,0,0,1,1,2.52,13,13,0,0,1,.27,2.53,14.59,14.59,0,0,1-.84,4.85,10.11,10.11,0,0,1-2.54,4.08,12.48,12.48,0,0,0,1.48-4.35,15.89,15.89,0,0,0,.06-4.46,8.41,8.41,0,0,0-1.33-3.88,2.34,2.34,0,0,0-1.22-.93l-.17-.05h-.12s-.43,0-.41,0a1.57,1.57,0,0,0-.53.21,4.28,4.28,0,0,0-1.23,1.27,14.87,14.87,0,0,0-1.05,1.85,32.81,32.81,0,0,0-1.67,4.18c-.5,1.45-1,2.91-1.37,4.4s-.84,3-1.19,4.48l-.84-1.06,1.25.25a9.16,9.16,0,0,1,1.23.47l.59.34c.19.14.36.31.53.46a2.68,2.68,0,0,1,.43.56,2.4,2.4,0,0,1,.31.62,2.55,2.55,0,0,1,.16.66,2.38,2.38,0,0,1,.05.65,3.36,3.36,0,0,1-.06.63,4.34,4.34,0,0,1-.14.6,5.63,5.63,0,0,1-.43,1.12A7.9,7.9,0,0,1,393.74,167.57Z" transform="translate(-0.99 -7.43)"/><path class="cls-7" d="M355.78,154.07s.06.38.19,1c0,.32.15.72.24,1.16s.25.94.41,1.47a16.1,16.1,0,0,0,.63,1.64,8.16,8.16,0,0,0,1,1.59,3.7,3.7,0,0,0,.64.67,3.52,3.52,0,0,0,.75.53,4.12,4.12,0,0,0,1.78.54h1c.32-.05.57-.11.86-.17a5.42,5.42,0,0,0,1.65-.86l.37-.29.33-.33a5.77,5.77,0,0,0,.62-.69,13.73,13.73,0,0,0,1-1.44,24.47,24.47,0,0,0,1.21-2.42c.26-.61.39-1,.39-1a7.74,7.74,0,0,1-.05,1.07,11.77,11.77,0,0,1-.62,2.76,8.9,8.9,0,0,1-.82,1.76,7.23,7.23,0,0,1-.61.91,5.24,5.24,0,0,1-.79.85,6.24,6.24,0,0,1-2.14,1.3,9.54,9.54,0,0,1-1.35.28l-.57,0h-.67a8,8,0,0,1-1.29-.28,5.29,5.29,0,0,1-1.21-.55l-.55-.37a4.89,4.89,0,0,1-.46-.45,4.76,4.76,0,0,1-.78-1,7.69,7.69,0,0,1-.94-2c-.09-.34-.17-.66-.25-1s-.09-.62-.13-.92a12.63,12.63,0,0,1,0-2.83A9.75,9.75,0,0,1,355.78,154.07Z" transform="translate(-0.99 -7.43)"/><path class="cls-7" d="M318.61,153.93s.06.38.18,1c.06.33.15.73.25,1.17s.25.94.4,1.47.39,1.08.63,1.64a9.26,9.26,0,0,0,1,1.59,3.75,3.75,0,0,0,.65.67,3.28,3.28,0,0,0,.75.53,4.41,4.41,0,0,0,1.78.54h1c.32-.05.56-.11.86-.17a5.65,5.65,0,0,0,1.65-.86l.37-.29.33-.33a6.78,6.78,0,0,0,.62-.69,14.71,14.71,0,0,0,1-1.44,20.7,20.7,0,0,0,1.21-2.42c.27-.62.4-1,.4-1a7.59,7.59,0,0,1-.05,1.06,11.83,11.83,0,0,1-.63,2.77,9.43,9.43,0,0,1-.81,1.76,7.24,7.24,0,0,1-.62.9,4.89,4.89,0,0,1-.79.86,6.15,6.15,0,0,1-2.14,1.3,10.44,10.44,0,0,1-1.35.28l-.56,0h-.59l-.08,0a8.11,8.11,0,0,1-1.3-.27,5.06,5.06,0,0,1-1.2-.56l-.55-.36c-.17-.14-.31-.3-.46-.45a5.38,5.38,0,0,1-.78-1,7.69,7.69,0,0,1-.94-2c-.1-.34-.18-.66-.25-1s-.09-.63-.14-.92a13.14,13.14,0,0,1,0-2.83A9.75,9.75,0,0,1,318.61,153.93Z" transform="translate(-0.99 -7.43)"/><path class="cls-5" d="M335.69,185.45l.18-.22a7.78,7.78,0,0,1,.6-.55,7.94,7.94,0,0,1,1-.7c.21-.12.43-.27.67-.4s.51-.22.79-.34a16.14,16.14,0,0,1,1.8-.69c.65-.17,1.35-.35,2.08-.51a12.71,12.71,0,0,1,2.25-.34c.77-.08,1.55-.14,2.33-.2a18.06,18.06,0,0,1,2.33,0c.77,0,1.52.09,2.25.14a16.37,16.37,0,0,1,2.08.27c.66.13,1.28.27,1.85.41,1.14.25,2.07.53,2.72.73s1,.35,1,.35-.39.08-1.07.16-1.65.18-2.8.22c-.57,0-1.19.05-1.84.06s-1.34,0-2,.07-1.44.06-2.17.07-1.5,0-2.24,0-1.48.09-2.21.11a18.75,18.75,0,0,0-2.15.11l-2,.15c-.64,0-1.22.16-1.78.22a11.24,11.24,0,0,0-1.51.23c-.44.11-.87.15-1.17.25l-.75.21Z" transform="translate(-0.99 -7.43)"/><polygon class="cls-14" points="237.11 300.82 233.46 297.73 272.91 250.78 276.56 253.87 237.11 300.82"/><path class="cls-15" d="M271.51,267.08q.28.32.6.63l5.43-6.41-3.64-3.09L269,264A34.64,34.64,0,0,0,271.51,267.08Z" transform="translate(-0.99 -7.43)"/><path class="cls-12" d="M238.48,314a4.49,4.49,0,0,1-6.31.58l-3-2.49a4.49,4.49,0,0,1-.58-6.31l29.28-35.58a4.49,4.49,0,0,1,6.31-.58l3,2.48a4.5,4.5,0,0,1,.58,6.32Z" transform="translate(-0.99 -7.43)"/><path class="cls-17" d="M267.47,274.8l-29.28,35.59a4.49,4.49,0,0,1-6.31.58l-3-2.49a4.56,4.56,0,0,1-1.07-1.3,4.49,4.49,0,0,0,1.36,4.93l3,2.49a4.49,4.49,0,0,0,6.31-.58l29.28-35.58a4.48,4.48,0,0,0,.49-5A4.37,4.37,0,0,1,267.47,274.8Z" transform="translate(-0.99 -7.43)"/><circle class="cls-18" cx="294.34" cy="240.18" r="26.75" transform="translate(-22.64 21.87) rotate(-5.5)"/><path class="cls-15" d="M292.9,269.28a29.14,29.14,0,1,1,30.54-27.66A29.17,29.17,0,0,1,292.9,269.28Zm2.64-53.43a24.36,24.36,0,1,0,23.13,25.53A24.38,24.38,0,0,0,295.54,215.85Z" transform="translate(-0.99 -7.43)"/><path class="cls-14" d="M290.81,269.18a29.14,29.14,0,1,1,30.54-27.66A29.17,29.17,0,0,1,290.81,269.18Zm2.64-53.43a24.35,24.35,0,1,0,23.13,25.53A24.38,24.38,0,0,0,293.45,215.75Z" transform="translate(-0.99 -7.43)"/><path class="cls-3" d="M184.19,301s49.25-19.7,56.64-20.32c15.35-1.28,28.62-.78,28.17,1.69-1,5.22-3.26,5.83-3.26,5.83s7.93,2.17-2.74,8.17c0,0,6.21.73-2.67,6.67,0,0,6.23,3.59-6.66,6.67-3.82.91-34.8,5.32-42,8l-61.34,13.45Z" transform="translate(-0.99 -7.43)"/><path class="cls-3" d="M224.33,288.33s26.55-19.89,29.28-18.68-2.12,12.12-10.33,19.27S224.33,288.33,224.33,288.33Z" transform="translate(-0.99 -7.43)"/><polygon class="cls-5" points="205.6 280.62 218.01 276.23 222.3 315.74 198.66 319.4 205.6 280.62"/><path class="cls-9" d="M126.19,297.73S66.4,218.85,48.36,230.08s-17.24,45.7,2,66.95,55.74,50.65,74.19,49.05,94-16.66,94-16.66l-6.85-47.09Z" transform="translate(-0.99 -7.43)"/><path class="cls-11" d="M50.37,297A227.94,227.94,0,0,0,67,313.28c5.81,5.14,11.83,10,18.1,14.59a145.19,145.19,0,0,0,19.65,12.34,63.26,63.26,0,0,0,10.71,4.35,31,31,0,0,0,5.63,1.11,19.38,19.38,0,0,0,2.85.07c.93-.05,1.92-.2,2.87-.3,3.86-.44,7.67-1,11.51-1.64s7.65-1.25,11.47-1.92q11.46-2,22.9-4.16l22.86-4.36,22.84-4.5-.45.64-6.76-47.1.55.39L126.24,298l-.14,0-.1-.11c-7-8-13.92-16-21-24L84,250l21.23,23.75c7.1,7.89,14.1,15.88,21.16,23.82l-.24-.09,85.43-15.61.48-.08.07.48,7,47.07.08.53-.53.1c-7.61,1.53-15.23,3-22.86,4.43l-22.89,4.27c-7.63,1.39-15.27,2.77-22.92,4.06q-5.75,1-11.5,1.88c-3.83.59-7.69,1.17-11.54,1.6-1,.09-1.91.23-2.92.28a19.48,19.48,0,0,1-3-.08,32,32,0,0,1-5.76-1.16,63.34,63.34,0,0,1-10.81-4.45,145,145,0,0,1-19.69-12.47c-6.22-4.65-12.2-9.62-18-14.84A226.2,226.2,0,0,1,50.37,297Z" transform="translate(-0.99 -7.43)"/></g></g></svg>