<svg xmlns="http://www.w3.org/2000/svg" viewBox="0 0 571.74 599.84"><defs><style>.cls-1{isolation:isolate;}.cls-2{fill:#036;mix-blend-mode:multiply;}.cls-3{fill:#ffcdcc;}.cls-4{fill:#ffb1b0;}.cls-5{fill:#f47676;}.cls-6{fill:#440a04;}.cls-7{fill:#0c0c23;}.cls-8{fill:#510e05;}.cls-9{fill:#fff;}.cls-10,.cls-18{fill:#ccf;}.cls-10{opacity:0.5;}.cls-11{fill:#7972d9;}.cls-12{fill:#ffa943;}.cls-13{fill:#e28e33;}.cls-14{fill:#242454;}.cls-15{fill:#13132d;}.cls-16{fill:#1c1c47;}.cls-17{fill:#ed902b;}</style></defs><g class="cls-1"><g id="BACKGROUND"><path class="cls-2" d="M127.15,536C24.64,544.31-48.55,360.37,42.07,309.46s118.55-63,123.19-153.09S273-20.31,344,15.85s49.2,118.45,135.55,136.4c99.59,20.7,135.27,287.47,27.07,336C401.19,535.58,435.21,612,339.5,604.58,247.49,597.46,284.39,523.24,127.15,536Z" transform="translate(-0.99 -7.43)"/></g><g id="OBJECTS"><path class="cls-3" d="M89.1,200.38s12.83,46.85,6,64.42-41.27-1.46-41.73,27.82S157,284.81,157,284.81L143.2,270.17l-2.3-42.46Z" transform="translate(-0.99 -7.43)"/><path class="cls-4" d="M105.68,224.91c4.76,7.9,9.94,16.5,17,22.25a45.83,45.83,0,0,0,19.73,9.26l-1.55-28.71L95,203.47A144.45,144.45,0,0,0,105.68,224.91Z" transform="translate(-0.99 -7.43)"/><path class="cls-5" d="M92.76,243.82l52.73,6.34,1.83,17.57s34.85-6.34,36.22,4.88,15.74,129.47-20,132.39S42.79,309.7,50.58,287.25s33-14.15,38.52-20S92.76,243.82,92.76,243.82Z" transform="translate(-0.99 -7.43)"/><path class="cls-6" d="M134,91.06s35.3-15.62,59.6,18.54,5.5,78.58,5.5,78.58,9.17-35.14-14.21-60v-7.32l9.17,13.66s11.46,37.1-6.88,56.13-67.4-51.73-67.4-51.73Z" transform="translate(-0.99 -7.43)"/><path class="cls-3" d="M124.86,105.21S191.34,92.92,191.34,177c0,82-62.36,80-92.62,36.11C66.29,166,74.42,111.07,124.86,105.21Z" transform="translate(-0.99 -7.43)"/><path class="cls-3" d="M84.05,178.91s-15.59-21.48-20.17,2.93,19.25,37.09,28.42,21.47S84.05,178.91,84.05,178.91Z" transform="translate(-0.99 -7.43)"/><path class="cls-5" d="M160.38,172.48c-1.12,7.57-1.62,15.68,1.63,22.77a35.89,35.89,0,0,0,3.57,5.44,126.55,126.55,0,0,1-12.53,5.46c3.37-2.47,6.92-4.65,10.51-6.77L163.3,201c-7.29-7.45-7-19.53-2.92-28.52Z" transform="translate(-0.99 -7.43)"/><path class="cls-5" d="M85.89,204.77c-4.88-2.27-8.08-6.94-1.16-9.14l-.6,1.12c-1.44-3.66-8.56-21.58-13.78-16.2a9.15,9.15,0,0,0-1.2,4.54,53.28,53.28,0,0,0,.69,10.41c-1.65-4.49-5-16.14,1.51-18.06,7.66-1.38,12.72,13,14.46,18.77l.26.91-.86.2c-6.11,1.21-2.22,5,.68,7.45Z" transform="translate(-0.99 -7.43)"/><path class="cls-6" d="M164,162.08a14.09,14.09,0,0,1,14.8-11c6.74.58,12.25,6.42,13.17,12.95-4.1-2-6.94-3.94-10.8-5.16-6-1.92-11.26.68-17.17,3.21Z" transform="translate(-0.99 -7.43)"/><path class="cls-6" d="M151.74,165.08c-9.29-5.79-18.65-11.43-29.25-6.47a93.83,93.83,0,0,0-10.18,5.5c2.71-8.33,10.8-15.13,20.08-14.61a22.34,22.34,0,0,1,19.35,15.58Z" transform="translate(-0.99 -7.43)"/><path class="cls-7" d="M176.38,181.15c-.11,3.71,1,6.75,2.47,6.8s2.75-2.92,2.86-6.63-1-6.75-2.47-6.8S176.49,177.44,176.38,181.15Z" transform="translate(-0.99 -7.43)"/><path class="cls-5" d="M128.75,214.94c8.8-4.31,20.43-3.92,28.21,2.37a20.91,20.91,0,0,1,3,3c-1.24-.63-2.33-1.45-3.6-2-8.47-4.43-18.25-4.53-27.57-3.36Z" transform="translate(-0.99 -7.43)"/><path class="cls-7" d="M129.58,174.29c5.42,1.43,10.92,3.32,16.21,5.18-3.14.24-6.39.53-9.52.68-2.39.12-4.78.23-7.18.23,2.36-.41,4.73-.71,7.11-1s4.76-.51,7.14-.73l-.13,1c-4.52-1.61-9.24-3.38-13.63-5.34Z" transform="translate(-0.99 -7.43)"/><path class="cls-8" d="M106.52,81.79s43.1-9.77,51.81,27.33c7.6,32.36-17,64.42-36.22,65.88,0,0,18.79-12.69,22-32.7a63.48,63.48,0,0,1-52.72,36.12s5,13.18-.46,22.94c0,0-4.59-30.75-19.72-31.24,0,0-9.62,1-7.79,22,0,0-16.05-21.47-13.76-48.31S70.76,82.76,106.52,81.79Z" transform="translate(-0.99 -7.43)"/><path class="cls-9" d="M150.53,265.93s41.83-14.74,53.27,27.46,32,86.83,32,86.83,83.87,17.86,99.88,24.35c0,0-13,21.1-22.88,25.16s-86.91-7.31-118.17-23.54S150.53,265.93,150.53,265.93Z" transform="translate(-0.99 -7.43)"/><path class="cls-10" d="M235.82,380.22a682.24,682.24,0,0,1-27.72-72.16c-3.48,6.7-6.62,13.58-9.79,20.45-7.49,16.23-15,32.44-23.75,48a.51.51,0,0,1-.27.24c5.66,14.25,12.42,25.35,20.36,29.47,31.26,16.23,108.26,27.6,118.17,23.54s22.88-25.16,22.88-25.16C319.69,398.08,235.82,380.22,235.82,380.22Z" transform="translate(-0.99 -7.43)"/><path class="cls-9" d="M45.54,288.67S48.29,271.74,85,266.9l77.66,72.75-12.1-73.72s27.94-7.85,38,4.73,50.32,227.24,49.1,336.39H30.28s38.84-134.74,57.64-189.9C87.92,417.15,30.87,331.74,45.54,288.67Z" transform="translate(-0.99 -7.43)"/><path class="cls-10" d="M215.52,396.33,187,355.88l-73.95-21.1L54.39,355.22s42.67,65.58,72.41,76.13c21,7.46,67.93-.86,93.19-7.11C218.51,412.58,217.05,407.6,215.52,396.33Z" transform="translate(-0.99 -7.43)"/><path class="cls-11" d="M200,308c11.71,59,22.67,119,29.94,178.71l1.32,12-1.57-12C221.49,428,210.34,366.55,200,308Z" transform="translate(-0.99 -7.43)"/><path class="cls-11" d="M163.39,269l10.93,29.12.12.32-.34,0-13.72,1.69.12-.63,13,6.42.27.14,0,.3-6.8,39-.11.65-.58-.32-51.83-28.43-.42-.23.26-.4,6.89-10.53.22.61L97,299.33l-.11,0,0-.09L80.29,271.47l17,27.45c-1-.47,24.52,7.2,24.28,7.06l.52.16-.3.45L115,317.16l-.16-.62,51.86,28.37-.69.33,6.92-38.94.22.44-12.93-6.56-1-.51,1.12-.13L174,298l-.22.36L163.39,269Z" transform="translate(-0.99 -7.43)"/><path class="cls-3" d="M374,457.4q36.54,1,73.08,2.22,32.26,1.1,64.53,2.29a281.33,281.33,0,0,0-17.43-34.38s55.51-124.19,21.93-153.25c-22.53-19.5-51.45,11.91-55.54-29.13s-8.13-43.71-2.23-59.81-52.53,31.34-52.53,31.34,16.14,56.62.93,55.46-36.45-2.36-37.9,34.3c-1.46,37.23,27.68,113.18,27.68,113.18A358.74,358.74,0,0,0,374,457.4Z" transform="translate(-0.99 -7.43)"/><path class="cls-4" d="M378.12,334.68c-2,.85-4.06,1.67-6.1,2.48,2.38,12.28,5.8,25.3,9.35,37.29,3.12-3,20.72-31.79,20.14-52.48-5.22,1.06-5.44,3.47-10.11,6.13A126,126,0,0,1,378.12,334.68Z" transform="translate(-0.99 -7.43)"/><path class="cls-4" d="M416.16,255.72c6.73-4.94,13.92-11.17,18.59-18.39,9.09-14.09,7.27-31.2,6.92-47.44-15.48,10.23-35.87,26.79-35.87,26.79s7,24.61,7.44,41.05C414.22,257.08,415.2,256.42,416.16,255.72Z" transform="translate(-0.99 -7.43)"/><path class="cls-4" d="M510.52,338.85s-7,64.29-16.35,88.68c0,0,26-58.27,31.66-104.33C520.72,330.46,515.43,336.36,510.52,338.85Z" transform="translate(-0.99 -7.43)"/><path class="cls-4" d="M461,303.59c3.92,16.87,6.38,45.32-9.35,75.16,0,0,32.72-20.13,9.33-74.88C460.23,304.23,461.71,303.23,461,303.59Z" transform="translate(-0.99 -7.43)"/><path class="cls-3" d="M411.23,272.68s-29.57-13-48,11.56c-16,21.3-53.43,112.21-53.43,112.21s-22.57,22.36-1.53,30c43.1,15.72,79.17-91.47,100.12-97.21S411.23,272.68,411.23,272.68Z" transform="translate(-0.99 -7.43)"/><path class="cls-4" d="M374,290.79s-1.22-7,4.54-6c0,0,3.87-4,6.58.94s4.2,6.42-.28,9-4,4.92-9.35,1.78S374,290.79,374,290.79Z" transform="translate(-0.99 -7.43)"/><path class="cls-6" d="M375.73,290.11s-.74-4.23,2.75-3.63c0,0,2.35-2.41,4,.57s2.55,3.89-.17,5.48-2.43,3-5.67,1.08S375.73,290.11,375.73,290.11Z" transform="translate(-0.99 -7.43)"/><path class="cls-8" d="M381.06,289.09s1.56,2-.4,2.75c0,0-.54,2-2.22,1s-2.4-1.21-1.44-2.88.42-2.31,2.62-2.35S381.06,289.09,381.06,289.09Z" transform="translate(-0.99 -7.43)"/><path class="cls-3" d="M329.6,378.6S268,413.5,229.32,436.86c-33.52-4.9-16.74,2.42-8.94,5.45-26.57,16.37-39.8,26.23-8.19,12.58,0,0-51.08,31.65,3.81,7.3,0,0-45.74,26.78,7.62,3.25,0,0-43.45,28.4,8.39,2.43,0,0,93-27.59,109.79-51.13S329.6,378.6,329.6,378.6Z" transform="translate(-0.99 -7.43)"/><path class="cls-4" d="M326.36,429.93c12,3.65,41.74-20.9,33.73-31.85-13.06-17.88-24.58-26.58-4.57,3.24,0,0-35.45-37.12-6.29,4.87,0,0-37.74-41.39-4,6.7,0,0-38.89-31.85-5.72,3A42.61,42.61,0,0,1,326.36,429.93Z" transform="translate(-0.99 -7.43)"/><path class="cls-12" d="M541.41,607.27c.16-53.2-7-116.72-35.49-161.72-56.36,11.82-117.84,5.52-126.74,2.74-14.84,25.09-30.47,56.49-38,95.35a623.68,623.68,0,0,0-8.59,63.63Z" transform="translate(-0.99 -7.43)"/><path class="cls-13" d="M540,561.2s-42.69,27.59-99.87,32.46l-1.53,13.39H541.41A380.57,380.57,0,0,0,540,561.2Z" transform="translate(-0.99 -7.43)"/><path class="cls-14" d="M388.8,456.89c-10.22-1.86-16.44-3.48-16.44-3.48l-12,23.74s5.84,2.63,17.8,5.45C381.12,473.82,385.41,465.51,388.8,456.89Z" transform="translate(-0.99 -7.43)"/><path class="cls-14" d="M447.33,462.35a322.82,322.82,0,0,1-48.45-3.78c-3.29,8.82-7.14,17.4-10.6,26.14a306.5,306.5,0,0,0,52.11,4.61h4.22C445.7,480.35,446.74,471.37,447.33,462.35Z" transform="translate(-0.99 -7.43)"/><path class="cls-14" d="M492.64,457.65a196.17,196.17,0,0,1-35.1,4.48v26.93c18.47-.73,32.38-2.91,42.57-5.36C498.31,474.88,494.34,466.52,492.64,457.65Z" transform="translate(-0.99 -7.43)"/><path class="cls-14" d="M501.36,462.8a76.09,76.09,0,0,1,4.77,12.05c.72,2.2,1.39,4.41,2,6.65,11.2-3.47,15.73-6.79,15.73-6.79-2.86-10.34-11.43-23.12-11.43-23.12A129.43,129.43,0,0,1,498,456.32C499,458.53,500.22,460.65,501.36,462.8Z" transform="translate(-0.99 -7.43)"/><path class="cls-15" d="M466.08,106.06S451.33,67.77,484.73,64s40.66,69.54,2.45,51.47c0,0,26.49,9.92,28.81-17.59,1.58-18.7-7.51-26.94-7.51-26.94s15,2.73,14.59,29.28c-.41,28.9-20.16,37.34-41.74,21.53s35.86,34.36,45.48-22c0,0,1.24,44.94-38.85,30.82C443.39,114.81,466.08,106.06,466.08,106.06Z" transform="translate(-0.99 -7.43)"/><path class="cls-12" d="M478.45,120.93c-5.86,6.48-15.77,5.93-22.14-1.21s-6.79-18.19-.94-24.67,15.77-5.93,22.14,1.22S484.3,114.46,478.45,120.93Z" transform="translate(-0.99 -7.43)"/><path class="cls-15" d="M399.3,103.41s-16.43-15.89-37.61-1.79S310.23,202,372.28,248.88c0,0-28.7-26.28-26.82-66.13,0,0-.66,39.2,32.3,46.64S399.3,103.41,399.3,103.41Z" transform="translate(-0.99 -7.43)"/><path class="cls-3" d="M410.77,107.52s-57.61-7.1-54.32,71.07,62.1,98.37,87.65,27.29C470.33,132.91,454.42,108.43,410.77,107.52Z" transform="translate(-0.99 -7.43)"/><path class="cls-3" d="M441.41,181S450,156.18,462.3,165.9s-5.43,52.18-22.85,41.45C427.65,200.08,441.41,181,441.41,181Z" transform="translate(-0.99 -7.43)"/><path class="cls-16" d="M418.45,83.52s-34,0-37.88,32.68,22.17,53.54,46.38,58.1c0,0-15.92-10.14-23.28-23.81,0,0,15.84,22.44,31.3,23.77,0,0-10,40.56-1.45,60.68,0,0,6.66-69.06,21.22-68.42s9.95,41.34-10.75,41.6a64.91,64.91,0,0,0,4.93,13.62l9.1.86s35-40.51,32.73-70S476.23,77.62,418.45,83.52Z" transform="translate(-0.99 -7.43)"/><path class="cls-7" d="M354.11,171.54A11.56,11.56,0,0,1,369,163.32c5.94,2.06,10,6.9,12.29,12.49-2.49-1.59-4.69-3.28-6.93-4.75-7.38-5.15-13.24-5.77-20.29.48Z" transform="translate(-0.99 -7.43)"/><path class="cls-7" d="M396.38,175a18.43,18.43,0,0,1,7-8.09c10.62-6.83,22.92,1,27,11.63-12.25-10.17-20.09-14-34-3.54Z" transform="translate(-0.99 -7.43)"/><path class="cls-5" d="M383.6,181c2.79,9.11,2.59,22.76-7.29,27.47l.17-1.78a91.07,91.07,0,0,1,7.24,6.93,100.31,100.31,0,0,1-9.79-6.14,14.44,14.44,0,0,0,6-5.65c3.4-6.27,3.46-13.79,3.68-20.83Z" transform="translate(-0.99 -7.43)"/><path class="cls-5" d="M450.14,202.37c1.24-3.78.67-7-3.92-7l-.94-.08.11-1c.9-6.28,2.57-17.84,7.87-21.8a4.17,4.17,0,0,1,3.83-.3c4.91,2.44,4.38,9.8,3.05,14.14a12.85,12.85,0,0,1-2.82,5,15.35,15.35,0,0,0,1.75-5.25c.48-3.37.41-7.39-1.35-10.27-.72-1.14-1.91-1.85-3.08-1.12-2.54,2.19-3.5,6-4.61,9.12-1.12,3.52-2,7.16-2.86,10.77l-.83-1c.5.1,1,.18,1.47.29,4.32,1.11,4.43,5.25,2.33,8.47Z" transform="translate(-0.99 -7.43)"/><path class="cls-7" d="M406.73,185.94c.63,4.06,1.61,10.11,6.36,10.7,4.94.46,7.15-4.93,8.59-8.91,0,4.9-3,11.33-8.78,10.68s-7-7.8-6.17-12.47Z" transform="translate(-0.99 -7.43)"/><path class="cls-7" d="M364.22,185.77c.63,4.06,1.61,10.11,6.36,10.7,4.94.46,7.15-4.93,8.59-8.91,0,4.89-3,11.33-8.78,10.68s-7-7.8-6.17-12.47Z" transform="translate(-0.99 -7.43)"/><path class="cls-5" d="M383.75,224.13c6.37-6.16,19.65-5.18,27.45-2.43-1.2.14-2.37.17-3.54.21-8,.43-16.22-.44-23.91,2.22Z" transform="translate(-0.99 -7.43)"/><polygon class="cls-14" points="271.16 366.2 266.99 362.43 312.1 305.28 316.27 309.05 271.16 366.2"/><path class="cls-15" d="M310.35,323.51l.69.77,6.22-7.8-4.17-3.77-5.63,7.07A42.37,42.37,0,0,0,310.35,323.51Z" transform="translate(-0.99 -7.43)"/><path class="cls-12" d="M272.58,380.65a4.92,4.92,0,0,1-7.22.71l-3.41-3a5.69,5.69,0,0,1-.67-7.68l33.49-43.32a4.92,4.92,0,0,1,7.22-.7l3.42,3a5.72,5.72,0,0,1,.66,7.69Z" transform="translate(-0.99 -7.43)"/><path class="cls-17" d="M305.74,332.92l-33.48,43.31a4.92,4.92,0,0,1-7.22.71l-3.42-3a5.36,5.36,0,0,1-1.22-1.59,5.66,5.66,0,0,0,1.55,6l3.41,3a4.92,4.92,0,0,0,7.22-.71l33.49-43.31a5.76,5.76,0,0,0,.56-6.1A5.66,5.66,0,0,1,305.74,332.92Z" transform="translate(-0.99 -7.43)"/><ellipse class="cls-18" cx="335.48" cy="283.33" rx="30.59" ry="32.56"/><path class="cls-15" d="M334.82,326.19c-18.35-1-32.54-17.64-31.63-37.18s16.57-34.64,34.92-33.67,32.55,17.64,31.64,37.18S353.18,327.16,334.82,326.19Zm3-65c-15.34-.8-28.43,11.82-29.19,28.15s11.1,30.27,26.44,31.08,28.44-11.82,29.2-28.15S353.18,262,337.84,261.15Z" transform="translate(-0.99 -7.43)"/><path class="cls-14" d="M332.43,326.07c-18.35-1-32.54-17.65-31.63-37.18s16.57-34.64,34.92-33.68,32.55,17.65,31.64,37.18S350.79,327,332.43,326.07Zm3-65c-15.34-.81-28.43,11.82-29.19,28.15s11.11,30.27,26.44,31.07,28.44-11.82,29.2-28.15S350.79,261.83,335.45,261Z" transform="translate(-0.99 -7.43)"/><path class="cls-3" d="M210.5,364.75s56.33-24,64.77-24.73c17.56-1.56,32.74-.95,32.22,2.06-1.1,6.35-3.73,7.09-3.73,7.09s9.06,2.65-3.13,9.95c0,0,7.09.88-3.05,8.12,0,0,7.12,4.37-7.63,8.11-4.36,1.11-39.8,6.48-48,9.74l-70.14,16.38Z" transform="translate(-0.99 -7.43)"/><path class="cls-3" d="M256.41,349.38s30.36-24.22,33.48-22.74-2.43,14.76-11.82,23.46S256.41,349.38,256.41,349.38Z" transform="translate(-0.99 -7.43)"/><polygon class="cls-5" points="235.12 341.61 249.32 336.27 254.22 384.37 227.18 388.82 235.12 341.61"/><path class="cls-9" d="M144.18,360.83s-68.38-96-89-82.36S35.45,334.11,57.46,360s63.75,61.66,84.84,59.71S249.76,399.4,249.76,399.4l-7.84-57.32Z" transform="translate(-0.99 -7.43)"/><path class="cls-11" d="M57.46,360c17.85,20.34,47.92,48.39,73.39,57.59,4.22,1.39,8.66,2.29,13.07,1.54,17.77-2.31,35.39-6,53-9.39s35.18-7.16,52.74-10.87l-.44.63-7.74-57.33.55.4c-.25-.09-97.91,18.82-98,18.45-15.95-19.48-31.91-39-48.06-58.27,15.92,19,33.27,39.26,48.21,57.86.53,0,97.74-19,98.19-19.05l.06.49,7.94,57.3.07.52-.51.11q-26.35,5.55-52.79,10.7c-8.81,1.71-17.63,3.41-26.47,5S153,418.81,144,419.87a22.47,22.47,0,0,1-6.8,0c-26.4-4.77-62.42-39.59-79.75-59.9Z" transform="translate(-0.99 -7.43)"/></g></g></svg>